<svg width="24" height="24" viewBox="0 0 24 24" fill="none" xmlns="http://www.w3.org/2000/svg">
<g opacity="0.1" clip-path="url(#clip0_1_96)">
<path d="M7.03125 15.4688C7.41989 15.4688 7.73438 15.1543 7.73438 14.7656V13.3594C7.73438 11.421 6.15783 9.84375 4.21875 9.84375C2.27967 9.84375 0.703125 11.421 0.703125 13.3594V14.7656C0.703125 15.1543 1.01761 15.4688 1.40625 15.4688H7.03125ZM6.32812 7.73438C6.32812 6.57122 5.38191 5.625 4.21875 5.625C3.05559 5.625 2.10938 6.57122 2.10938 7.73438C2.10938 8.89753 3.05559 9.84375 4.21875 9.84375C5.38191 9.84375 6.32812 8.89753 6.32812 7.73438ZM21.8906 7.73438C21.8906 6.57122 20.9444 5.625 19.7812 5.625C18.6181 5.625 17.6719 6.57122 17.6719 7.73438C17.6719 8.89753 18.6181 9.84375 19.7812 9.84375C20.9444 9.84375 21.8906 8.89753 21.8906 7.73438ZM19.7812 9.84375C17.8422 9.84375 16.2656 11.421 16.2656 13.3594V14.7656C16.2656 15.1543 16.5801 15.4688 16.9688 15.4688H22.5938C22.9824 15.4688 23.2969 15.1543 23.2969 14.7656V13.3594C23.2969 11.421 21.7203 9.84375 19.7812 9.84375ZM21.8906 16.875H2.10938C1.72073 16.875 1.40625 17.1895 1.40625 17.5781V23.2969C1.40625 23.6855 1.72073 24 2.10938 24H21.8906C22.2793 24 22.5938 23.6855 22.5938 23.2969V17.5781C22.5938 17.1895 22.2793 16.875 21.8906 16.875ZM11.2969 11.9531V14.7656C11.2969 15.1543 11.6114 15.4688 12 15.4688C12.3886 15.4688 12.7031 15.1543 12.7031 14.7656V11.9531C12.7031 11.5645 12.3886 11.25 12 11.25C11.6114 11.25 11.2969 11.5645 11.2969 11.9531ZM7.52583 3.26227C8.72194 2.06545 10.3109 1.40625 12 1.40625C13.6891 1.40625 15.2781 2.06545 16.4742 3.26227C16.7489 3.53691 17.1938 3.53691 17.4684 3.26227C17.7431 2.98763 17.7431 2.54264 17.4684 2.268C16.0072 0.805453 14.064 0 12 0C9.93595 0 7.99275 0.805453 6.53156 2.268C6.25692 2.54264 6.25692 2.98763 6.53156 3.26227C6.8062 3.53691 7.25114 3.53691 7.52583 3.26227ZM15.4785 5.25009C15.7532 4.97611 15.7532 4.53047 15.4785 4.25583C13.6191 2.39503 10.3809 2.39503 8.52145 4.25583C8.24681 4.53047 8.24681 4.97611 8.52145 5.25009C8.79609 5.52473 9.24108 5.52473 9.51572 5.25009C10.845 3.91936 13.155 3.91936 14.4843 5.25009C14.759 5.52473 15.2039 5.52473 15.4785 5.25009Z" fill="url(#paint0_linear_1_96)"/>
<path d="M23.2969 14.7656H0.703125C0.314812 14.7656 0 15.0804 0 15.4688V16.875C0 17.2633 0.314812 17.5781 0.703125 17.5781H23.2969C23.6852 17.5781 24 17.2633 24 16.875V15.4688C24 15.0804 23.6852 14.7656 23.2969 14.7656ZM12 12.6562C13.1632 12.6562 14.1094 11.71 14.1094 10.5469V7.73438C14.1094 6.57122 13.1632 5.625 12 5.625C10.8368 5.625 9.89062 6.57122 9.89062 7.73438V10.5469C9.89062 11.71 10.8368 12.6562 12 12.6562Z" fill="url(#paint1_linear_1_96)"/>
</g>
<defs>
<linearGradient id="paint0_linear_1_96" x1="12" y1="24" x2="12" y2="0" gradientUnits="userSpaceOnUse">
<stop stop-color="#5558FF"/>
<stop offset="1" stop-color="#00C0FF"/>
</linearGradient>
<linearGradient id="paint1_linear_1_96" x1="12" y1="17.5781" x2="12" y2="5.625" gradientUnits="userSpaceOnUse">
<stop stop-color="#ADDCFF"/>
<stop offset="0.5028" stop-color="#EAF6FF"/>
<stop offset="1" stop-color="#EAF6FF"/>
</linearGradient>
<clipPath id="clip0_1_96">
<rect width="24" height="24" fill="white"/>
</clipPath>
</defs>
</svg>
