<svg preserveAspectRatio="none" width="100%" height="100%" overflow="visible" style="display: block;" viewBox="0 0 23 24" fill="none" xmlns="http://www.w3.org/2000/svg">
<g id="Layer_1" clip-path="url(#clip0_33_429)">
<path id="Vector" d="M11.5009 0C5.14925 0 0 4.69891 0 10.4955C0 14.7758 1.81647 16.8197 4.30571 18.6833L4.31778 18.6884V23.7124C4.31778 23.9489 4.59206 24.0851 4.78527 23.9438L9.14618 20.7477L9.23933 20.7885C9.97075 20.9213 10.7263 20.9911 11.4991 20.9911C17.8507 20.9911 23 16.2922 23 10.4955C23 4.69891 17.8525 0 11.5009 0ZM7.64539 13.1539C8.77357 13.1539 9.73787 12.4884 10.0277 11.4588H11.6958C11.2887 13.4381 9.72579 14.7366 7.64712 14.7366C5.23033 14.7366 3.31381 12.9582 3.31381 10.4836C3.31381 8.00908 5.23033 6.23061 7.64712 6.23061C9.74822 6.23061 11.3197 7.55467 11.7079 9.568H10.0449C9.79134 8.47369 8.79427 7.79123 7.64712 7.79123C6.02213 7.79123 4.94052 8.9349 4.94052 10.4853C4.94052 12.0357 6.17048 13.1573 7.64712 13.1573M18.6322 14.5733H17.1038V11.1729C17.1038 10.39 16.6415 9.96965 15.9308 9.96965C15.1373 9.96965 14.6284 10.4479 14.6284 11.418V14.5733H13.1V6.25613H14.6284V9.3842C14.9958 8.83449 15.5875 8.56559 16.3931 8.56559C17.0452 8.56559 17.5782 8.77663 17.9922 9.20891C18.4183 9.64119 18.6322 10.2249 18.6322 10.9857V14.5733Z" fill="var(--fill-0, #626262)"/>
</g>
<defs>
<clipPath id="clip0_33_429">
<rect width="23" height="24" fill="white"/>
</clipPath>
</defs>
</svg>
