<svg width="24" height="24" viewBox="0 0 24 24" fill="none" xmlns="http://www.w3.org/2000/svg">
<g opacity="0.1" clip-path="url(#clip0_1_106)">
<path d="M10.4209 16.0538C9.71708 15.5645 8.48122 14.5691 7.51133 12.8893C7.08276 12.1469 6.38811 10.7201 6.2256 8.7873L6.91738 8.11052L2.92419 1.19411L1.2906 2.13729C0.295724 2.71169 -0.20312 3.88854 0.0775206 4.99915C0.979442 8.56863 2.28238 11.8011 4.06082 14.8814C6.49921 19.1049 8.98166 21.7029 10.6368 23.2897C11.4566 24.0756 12.7187 24.2264 13.706 23.6563L15.3461 22.7094L11.3529 15.7931L10.4209 16.0538ZM23.7869 5.29338L21.2391 7.77686L21.8406 11.2836C21.9391 11.858 21.3362 12.296 20.8204 12.0249L17.6711 10.3692L14.5219 12.0249C14.0061 12.296 13.4031 11.858 13.5017 11.2836L14.1031 7.77686L11.5553 5.29338C11.138 4.8866 11.3683 4.17785 11.945 4.09408L15.466 3.58244L17.0406 0.391896C17.2985 -0.130713 18.0437 -0.130713 18.3016 0.391896L19.8763 3.58244L23.3972 4.09408C23.9739 4.1779 24.2042 4.8866 23.7869 5.29338Z" fill="url(#paint0_linear_1_106)"/>
<path d="M8.69305 4.15477C9.17469 4.98901 9.02999 6.0436 8.3414 6.71724L6.91734 8.11046L2.92419 1.1941L4.14205 0.490975C5.15094 -0.0915406 6.44104 0.254162 7.02351 1.26305L8.69305 4.15477ZM13.2715 15.2564C14.1992 14.9969 15.1848 15.3989 15.6665 16.2331L17.336 19.1249C17.9185 20.1338 17.5728 21.4238 16.5639 22.0063L15.3461 22.7094L11.3529 15.7931L13.2715 15.2564Z" fill="url(#paint1_linear_1_106)"/>
</g>
<defs>
<linearGradient id="paint0_linear_1_106" x1="12" y1="24" x2="12" y2="-2.67029e-05" gradientUnits="userSpaceOnUse">
<stop stop-color="#FD5900"/>
<stop offset="1" stop-color="#FFDE00"/>
</linearGradient>
<linearGradient id="paint1_linear_1_106" x1="10.2716" y1="22.7094" x2="10.2716" y2="0.20799" gradientUnits="userSpaceOnUse">
<stop stop-color="#FFEDAD"/>
<stop offset="1" stop-color="#FFFFE5"/>
</linearGradient>
<clipPath id="clip0_1_106">
<rect width="24" height="24" fill="white"/>
</clipPath>
</defs>
</svg>
