<svg width="24" height="24" viewBox="0 0 24 24" fill="none" xmlns="http://www.w3.org/2000/svg">
<path d="M10.4209 16.0538C9.71708 15.5646 8.48122 14.5692 7.51133 12.8893C7.08276 12.147 6.38811 10.7202 6.2256 8.78736L6.91738 8.11058L2.92419 1.19418L1.2906 2.13735C0.295724 2.71175 -0.20312 3.8886 0.0775206 4.99921C0.979442 8.56869 2.28238 11.8012 4.06082 14.8815C6.49921 19.1049 8.98166 21.703 10.6368 23.2898C11.4566 24.0757 12.7187 24.2265 13.706 23.6564L15.3461 22.7095L11.3529 15.7931L10.4209 16.0538ZM23.7869 5.29344L21.2391 7.77693L21.8406 11.2837C21.9391 11.8581 21.3362 12.2961 20.8204 12.0249L17.6711 10.3693L14.5219 12.0249C14.0061 12.2961 13.4031 11.8581 13.5017 11.2837L14.1031 7.77693L11.5553 5.29344C11.138 4.88666 11.3683 4.17791 11.945 4.09414L15.466 3.5825L17.0406 0.391957C17.2985 -0.130652 18.0437 -0.130652 18.3016 0.391957L19.8763 3.5825L23.3972 4.09414C23.9739 4.17796 24.2042 4.88666 23.7869 5.29344Z" fill="url(#paint0_linear_83_100)"/>
<path d="M8.69305 4.15477C9.17469 4.98901 9.02999 6.0436 8.3414 6.71724L6.91734 8.11046L2.92419 1.1941L4.14205 0.490975C5.15094 -0.0915406 6.44104 0.254162 7.02351 1.26305L8.69305 4.15477ZM13.2715 15.2564C14.1992 14.9969 15.1848 15.3989 15.6665 16.2331L17.336 19.1249C17.9185 20.1338 17.5728 21.4238 16.5639 22.0063L15.3461 22.7094L11.3529 15.7931L13.2715 15.2564Z" fill="url(#paint1_linear_83_100)"/>
<defs>
<linearGradient id="paint0_linear_83_100" x1="12" y1="24" x2="12" y2="3.43323e-05" gradientUnits="userSpaceOnUse">
<stop stop-color="#FD5900"/>
<stop offset="1" stop-color="#FFDE00"/>
</linearGradient>
<linearGradient id="paint1_linear_83_100" x1="10.2716" y1="22.7094" x2="10.2716" y2="0.20799" gradientUnits="userSpaceOnUse">
<stop stop-color="#FFEDAD"/>
<stop offset="1" stop-color="#FFFFE5"/>
</linearGradient>
</defs>
</svg>
