<svg width="32" height="32" viewBox="0 0 32 32" fill="none" xmlns="http://www.w3.org/2000/svg">
<path d="M9.75248 0.95901C14.917 0.935844 20.0798 0.942463 25.2443 0.977211L25.3603 1.00534H29.85C29.9072 0.970595 29.966 0.967285 29.9987 1.03347V1.56464L29.9725 1.59939C29.9415 1.83104 29.9104 2.0627 29.8794 2.29436L29.832 2.45653C29.8026 2.67991 29.7585 2.89999 29.7013 3.11841L29.6833 3.12999C29.6212 3.221 29.5902 3.32856 29.5886 3.45101C29.533 3.52216 29.5052 3.59828 29.5069 3.68101C29.4562 3.76209 29.4219 3.85145 29.4072 3.94742C29.3272 4.09304 29.2651 4.24361 29.2063 4.40081L29.167 4.45376C29.1164 4.59772 29.0396 4.73341 28.9628 4.86082L28.971 4.87241C28.7766 5.22982 28.538 5.57235 28.3028 5.90826C28.2668 5.93142 28.2374 5.96452 28.2129 5.99927C28.2243 6.00423 28.2243 6.00919 28.2129 6.01416L28.123 6.10517C28.1361 6.11013 28.1361 6.11509 28.123 6.12006C27.9711 6.2938 27.8159 6.4659 27.6574 6.63633C27.5496 6.74058 27.445 6.84648 27.3421 6.95569C27.1329 7.16915 26.8977 7.35613 26.6379 7.51829C26.535 7.59441 26.4271 7.66556 26.3144 7.73175C26.2801 7.77974 26.2311 7.80952 26.1657 7.82441L26.1249 7.87075C26.0023 7.93693 25.8831 8.00643 25.7687 8.08089C25.7181 8.10075 25.6723 8.12888 25.6315 8.16859C25.4223 8.26126 25.2181 8.35392 25.0188 8.44658C25.0041 8.45155 24.9829 8.45651 24.9583 8.46148C24.9551 8.47141 24.9485 8.47141 24.9436 8.46148C24.8734 8.48961 24.8048 8.51939 24.7329 8.55249C24.7296 8.56076 24.7231 8.56076 24.7182 8.55249C24.5352 8.62529 24.3408 8.68155 24.148 8.73451C24.0401 8.7494 23.9339 8.78084 23.8327 8.83048C23.6938 8.84703 23.5614 8.87681 23.4356 8.92149C23.2036 8.93142 22.9782 8.96451 22.7641 9.02243C20.1517 9.02905 17.5392 9.02242 14.9268 9.00753L13.0642 9.03566C12.927 9.0671 12.7832 9.07372 12.6313 9.05717C12.561 9.1002 12.4711 9.10351 12.3895 9.10682C11.9826 9.08696 11.584 9.11674 11.1951 9.19783C10.8994 9.17797 10.6151 9.20775 10.3423 9.28387C10.1136 9.27063 9.90116 9.30207 9.70347 9.37653L9.4682 9.38481C9.44533 9.39143 9.42409 9.39143 9.40775 9.38481C9.32442 9.38481 9.246 9.40135 9.18228 9.46092C9.17738 9.4692 9.17248 9.4692 9.16758 9.46092C9.16104 9.47085 9.14634 9.47582 9.12183 9.47582C9.07118 9.48409 9.02054 9.48409 8.97152 9.47582C8.87839 9.47582 8.79834 9.50064 8.73135 9.55193C8.72808 9.56517 8.72155 9.56352 8.71665 9.55193L8.6709 9.56683C8.64313 9.57841 8.58268 9.59165 8.56634 9.56683C8.46831 9.56352 8.38825 9.58834 8.32617 9.64294H8.31146L8.28205 9.65784C8.15625 9.66445 8.03698 9.69424 7.92752 9.74719C7.81152 9.75877 7.70368 9.79021 7.60239 9.84316C7.48475 9.85475 7.37856 9.8895 7.28053 9.94576C7.1874 9.94576 7.10898 9.97057 7.04526 10.0186C6.98971 10.0517 6.94723 10.0583 6.91619 10.0368C6.86554 10.0467 6.82796 10.0699 6.79692 10.1129C6.79202 10.1261 6.78712 10.1261 6.78222 10.1129L6.73647 10.1278C6.72503 10.141 6.70053 10.1443 6.69073 10.1278C6.63191 10.1327 6.58943 10.1542 6.55512 10.2039C6.55022 10.2122 6.54531 10.2122 6.54041 10.2039C6.46199 10.2254 6.3901 10.2602 6.32638 10.3098C6.24959 10.3197 6.18588 10.3495 6.1336 10.3975C5.99799 10.4372 5.87872 10.5117 5.76109 10.5845C5.39675 10.7797 5.04711 11.0031 4.71055 11.253C4.34784 11.5194 4.03415 11.8239 3.7662 12.1647C3.73026 12.2342 3.65347 12.3236 3.58649 12.3616C3.5097 12.4378 3.44435 12.5255 3.39206 12.6198C3.40513 12.6247 3.40513 12.6297 3.39206 12.6347C3.35612 12.6562 3.33651 12.6909 3.31691 12.7257C3.32998 12.7306 3.32998 12.7356 3.31691 12.7406C3.25972 12.7819 3.22051 12.8398 3.19927 12.9143L3.13719 12.9987C3.15026 13.0037 3.15026 13.0086 3.13719 13.0136L3.12248 13.0285C3.0751 13.0715 3.0457 13.1228 3.03263 13.1807C3.03916 13.1857 3.03916 13.1906 3.03263 13.1956C2.96564 13.2883 2.90519 13.3892 2.85291 13.5001C2.86761 13.505 2.87251 13.5133 2.86761 13.5249C2.8235 13.6126 2.78265 13.6986 2.74834 13.7897C2.7271 13.8476 2.70259 13.9038 2.67319 13.9568L2.60947 14.0792C2.55882 14.2596 2.4902 14.4317 2.41995 14.6054L2.39381 14.799C2.33662 14.9165 2.29904 15.0406 2.28271 15.1713L2.25003 15.221C2.20918 15.398 2.15527 15.4427 2.08828 15.3534L2.07031 15.2657C2.07031 14.5161 2.07848 13.7648 2.09645 13.0119C2.07685 11.6319 2.07521 10.2568 2.11279 8.87681C2.16507 8.64681 2.19121 8.41349 2.19121 8.17852C2.2582 8.02463 2.27944 7.88895 2.28434 7.71189L2.2778 7.70196C2.39544 7.19893 2.54412 6.72072 2.73527 6.23754C2.78919 6.17301 2.81696 6.09689 2.8333 6.01416C2.9297 5.82552 3.02119 5.63688 3.10941 5.44825L3.15026 5.3953C3.39696 4.95183 3.67635 4.49182 4.02435 4.11289C4.25962 3.76871 4.57004 3.46425 4.87883 3.18625C5.04874 3.03237 5.22356 2.8851 5.40328 2.7461C5.52909 2.65013 5.65325 2.55415 5.77742 2.45818C5.83624 2.43667 5.87382 2.42343 5.9065 2.36552C6.01106 2.30926 6.11236 2.24803 6.21202 2.1835L6.22672 2.16861C6.22672 2.16861 6.23653 2.16199 6.24143 2.16861C6.30351 2.11731 6.3754 2.06932 6.45219 2.03623C6.46526 2.03126 6.47343 2.03292 6.4816 2.04616L6.52734 1.98493C6.53061 1.9717 6.53551 1.9717 6.54205 1.98493C6.61557 1.97997 6.66948 1.95018 6.70706 1.89392C6.71033 1.88069 6.71523 1.88069 6.72177 1.89392L6.78222 1.87903C6.78712 1.86579 6.79202 1.86579 6.79692 1.87903C6.86064 1.81946 6.93089 1.77975 7.00932 1.76155C7.06487 1.7086 7.13349 1.67881 7.21681 1.66723L7.26092 1.62089C7.26582 1.61097 7.27073 1.60104 7.27726 1.59773C7.5109 1.49845 7.74453 1.39916 7.98633 1.32636C8.0958 1.30981 8.19546 1.2883 8.28532 1.22542C8.41929 1.21714 8.5402 1.17743 8.66436 1.12779C8.85552 1.09304 9.04504 1.05995 9.23293 1.02851C9.23293 1.0252 9.2362 1.02189 9.23783 1.02189C9.27704 1.01693 9.42572 0.998723 9.44859 1.00865C9.4535 1.01031 9.45676 1.01858 9.4584 1.02851C9.45676 1.01858 9.45513 1.01031 9.4584 1.00865C9.49597 0.983831 9.6904 0.942464 9.74268 0.9375C9.74431 0.9375 9.74758 0.944117 9.75085 0.954046L9.75248 0.95901Z" fill="black"/>
<path d="M29.7756 23.8364C29.7413 23.9886 29.7168 24.1458 29.7004 24.3047C29.6465 24.4304 29.6269 24.5512 29.6089 24.6852L29.5485 24.7994C29.5338 24.9169 29.5207 25.0145 29.4554 25.1155C29.4488 25.2148 29.4178 25.3008 29.3639 25.3736C29.3377 25.501 29.2952 25.6218 29.2364 25.7343C29.1531 25.9395 29.0632 26.1364 28.9636 26.3416C28.8198 26.6395 28.6532 26.9406 28.4489 27.2037C28.3819 27.3477 28.2839 27.4817 28.1859 27.6025C28.0045 27.8573 27.8052 28.0956 27.5863 28.3157C27.3902 28.544 27.1631 28.7625 26.9475 28.9693H26.9262C26.6093 29.239 26.258 29.5286 25.8953 29.747C25.8822 29.7553 25.8642 29.7586 25.8463 29.7586L25.727 29.8496C25.7221 29.8628 25.7172 29.8628 25.7123 29.8496C25.6649 29.8777 25.6208 29.9075 25.5767 29.9406C25.5653 29.9654 25.5538 29.9687 25.5473 29.9406C25.4868 30.0035 25.4166 30.0449 25.3398 30.0664C25.2287 30.1342 25.1094 30.1921 24.9869 30.2401C24.8545 30.3195 24.7042 30.4072 24.5539 30.437L24.4379 30.5032C24.366 30.5462 24.2909 30.576 24.2125 30.5942C24.121 30.6058 24.036 30.6356 23.9576 30.6852C23.9559 30.6968 23.951 30.6952 23.9429 30.6852C23.8383 30.6935 23.755 30.7266 23.6602 30.7746C23.5312 30.8027 23.4054 30.8325 23.2828 30.8673C23.0606 30.9169 22.8352 30.9583 22.6064 30.9897L22.5934 30.9732C22.479 30.9831 22.3581 31.0129 22.2486 31.0493C22.2437 31.0575 22.2388 31.0575 22.2339 31.0493C22.229 31.0559 22.2241 31.0559 22.2192 31.0493C17.0564 31.0608 11.655 31.0691 6.48889 31.0493C6.47582 31.0608 6.45785 31.0608 6.44315 31.0493L6.41374 31.0344C6.41047 31.0476 6.40557 31.0476 6.39903 31.0344L6.34022 31.0079C4.95638 30.988 3.5317 30.9897 2.14949 30.9963C2.05963 31.0327 2.01225 31.0145 2.00735 30.9434C1.99755 30.9334 1.99755 30.9235 2.00735 30.9136C2.00245 30.7465 2.01062 30.5843 2.03349 30.4254L2.05964 30.4006C2.07107 30.1805 2.08904 29.9621 2.11518 29.742C2.16747 29.5948 2.19687 29.4376 2.20178 29.2738C2.25242 29.1513 2.2802 29.0272 2.2949 28.8899C2.34718 28.7956 2.37659 28.6897 2.38313 28.5755C2.43868 28.501 2.46809 28.4183 2.46809 28.3289C2.51874 28.2594 2.54978 28.18 2.56121 28.0906C2.55141 28.089 2.55304 28.0824 2.56121 28.0758C2.60859 28.0162 2.63964 27.95 2.65107 27.8788L2.6429 27.8606L2.74093 27.6505C2.90431 27.3047 3.09057 26.9605 3.30133 26.6213L3.40099 26.4823C3.57091 26.2125 3.7784 25.9627 3.98753 25.7294C4.00713 25.6963 4.02511 25.6632 4.04471 25.6317C4.36167 25.2958 4.70151 24.9781 5.06421 24.6753L5.43999 24.4023C5.59846 24.3047 5.74714 24.2087 5.88928 24.1144C5.92523 24.0813 5.96444 24.0565 6.00855 24.0383C6.06737 24.0234 6.12128 23.9936 6.1703 23.9489C6.51176 23.7752 6.8565 23.618 7.20777 23.4757C7.29436 23.4723 7.37768 23.4426 7.45937 23.383C7.84005 23.2721 8.20929 23.1745 8.5671 23.0918C8.80237 23.0802 9.0262 23.0421 9.25493 22.9974C11.0243 22.9677 12.7954 22.9693 14.5664 23.0024C16.0107 23.0074 17.4959 22.9941 18.9124 22.9759C19.0415 22.9346 19.1771 22.9213 19.3159 22.9379L19.4907 22.913C19.6607 22.8932 19.8322 22.8849 20.007 22.8915C20.9939 22.822 21.9562 22.7029 22.894 22.5341C23.0361 22.5341 23.1717 22.506 23.2975 22.4448C23.4397 22.4431 23.5704 22.4117 23.6913 22.3488C23.8203 22.3389 23.9396 22.3273 24.0507 22.2578C24.1667 22.2594 24.268 22.2297 24.3579 22.1668C24.4722 22.1701 24.5735 22.1386 24.6585 22.0741C24.7663 22.0725 24.8562 22.041 24.9297 21.9831C25.0294 21.9814 25.1094 21.95 25.1682 21.8921C25.263 21.8789 25.3398 21.8623 25.4198 21.8011C25.4999 21.7829 25.5734 21.7514 25.6404 21.7035C25.8365 21.629 26.0325 21.5429 26.2057 21.4255C26.4361 21.3361 26.6566 21.1905 26.8543 21.0449C26.8592 21.0316 26.8641 21.0316 26.869 21.0449C26.9164 21.0234 26.954 20.9903 26.9883 20.9539C27.1958 20.8016 27.3951 20.6444 27.5879 20.4823C27.815 20.2787 28.0307 20.0537 28.2349 19.8072L28.2774 19.784C28.5845 19.4464 28.8541 19.0344 29.0387 18.6224L29.0894 18.5727C29.1335 18.4635 29.1792 18.356 29.225 18.2468L29.2691 18.1905C29.3214 18.0168 29.3835 17.8447 29.4619 17.6825C29.475 17.5783 29.4929 17.4872 29.5501 17.3962C29.5615 17.2821 29.5697 17.1993 29.6481 17.11L29.6694 16.928C29.6694 16.9031 29.6661 16.8733 29.6694 16.8518C29.6727 16.8303 29.7772 16.6086 29.7886 16.6003C29.8589 16.5556 29.8899 16.6649 29.8948 16.7211C29.939 17.1911 29.8818 17.7768 29.8785 18.255C29.8687 19.9279 29.9128 21.6174 29.8475 23.2804C29.756 23.4409 29.8148 23.6593 29.7756 23.838V23.8364Z" fill="black"/>
<path d="M6.65131 11.9682C6.77221 11.9599 6.86861 11.9748 6.98788 11.9219H10.543L10.7211 11.9682C14.8792 11.9715 19.0421 11.9533 23.1985 11.9831C23.7851 11.9881 24.5236 11.9252 25.0889 11.9831C25.1754 11.9914 25.2735 12.0476 25.3454 12.0576C25.4418 12.0725 25.5774 12.0576 25.6705 12.0774C25.7146 12.0857 25.7489 12.1304 25.7865 12.1436C25.8486 12.1651 25.9352 12.1552 25.9972 12.1734C26.0381 12.185 26.0642 12.223 26.0985 12.2379C26.1525 12.2611 26.2145 12.2479 26.2636 12.2694C26.2962 12.2826 26.3175 12.3289 26.3567 12.3422C26.4024 12.3571 26.4547 12.3471 26.5037 12.3753C26.5527 12.4034 26.6736 12.501 26.7178 12.5225C26.7472 12.5358 26.7815 12.5292 26.8125 12.5474C26.8436 12.5656 26.8485 12.6036 26.8762 12.6185C26.9498 12.6599 26.9432 12.6499 27.0167 12.7046C27.0413 12.7228 27.0821 12.7194 27.105 12.736C27.1278 12.7525 27.1262 12.7873 27.1393 12.8005C27.1442 12.8055 27.2324 12.8684 27.2602 12.8899C27.4791 13.0653 27.6016 13.148 27.765 13.3747C27.868 13.5187 28.0052 13.6527 28.1016 13.7934C28.1392 13.8463 28.1261 13.9324 28.2143 13.9588C28.2143 13.9638 28.2143 13.9688 28.2143 13.9737C28.2258 14.0349 28.265 14.0813 28.3042 14.126C28.3058 14.1309 28.3042 14.1359 28.3042 14.1408L28.3189 14.1872C28.3189 14.1872 28.3189 14.1971 28.3189 14.2021C28.3401 14.2401 28.3614 14.2782 28.394 14.308C28.3957 14.3113 28.394 14.3179 28.394 14.3229L28.4087 14.3526C28.4104 14.3609 28.4071 14.3742 28.4087 14.3824C28.4235 14.4304 28.448 14.4701 28.4839 14.5032C28.4839 14.5082 28.4839 14.5132 28.4839 14.5181C28.4953 14.5413 28.5002 14.5661 28.4986 14.5942C28.4986 14.5992 28.4986 14.6042 28.4986 14.6091C28.51 14.6555 28.5215 14.6985 28.5591 14.7299C28.595 14.8309 28.577 14.8822 28.595 14.9732C28.6097 15.041 28.6669 15.0857 28.6767 15.1635C28.6849 15.2214 28.6718 15.2859 28.6767 15.3438C28.7224 15.731 28.8041 15.9329 28.7388 16.3482C28.7094 16.5336 28.7028 16.7437 28.6734 16.9208C28.6636 16.9803 28.6228 17.0151 28.6064 17.0647C28.5803 17.1408 28.5966 17.212 28.5689 17.2848C28.5525 17.3278 28.5133 17.3543 28.5035 17.3857C28.4904 17.4304 28.5002 17.4784 28.4823 17.5313C28.4578 17.6091 28.3728 17.6737 28.3908 17.7812C28.3663 17.8391 28.3336 17.9119 28.3009 17.9632L28.2568 18.0112C28.1522 18.2214 28.015 18.4216 27.8663 18.6019C27.8712 18.6168 27.8663 18.6218 27.8516 18.6168C27.8271 18.6334 27.8059 18.6532 27.7846 18.6764C27.5706 18.9246 27.4742 19.0338 27.2275 19.2225L27.1867 19.2771C27.0968 19.3168 27.0135 19.3747 26.9367 19.4508C26.9334 19.4525 26.9253 19.4492 26.922 19.4508C26.8583 19.4773 26.8109 19.512 26.757 19.5567C26.7521 19.5567 26.7472 19.5567 26.7423 19.5567C26.6965 19.565 26.6622 19.5848 26.6377 19.6179C26.5625 19.6527 26.476 19.709 26.4155 19.7354C26.373 19.7553 26.3142 19.7454 26.2766 19.7619C26.2538 19.7735 26.2358 19.8082 26.19 19.8264C26.1329 19.8479 26.0789 19.838 26.0267 19.8595C25.9891 19.8744 25.9597 19.9174 25.9156 19.929C25.86 19.9439 25.8028 19.9307 25.7456 19.9406C25.677 19.9505 25.6264 19.9903 25.5692 20.0134C24.9761 20.068 24.3014 20.0813 23.6609 20.0796C20.7282 20.0399 17.7547 20.0217 14.7419 20.0283C12.1229 20.0233 9.50231 20.0333 6.88331 20.0283C6.74117 20.0002 6.59739 19.9638 6.45362 19.939C6.30984 19.9141 6.08111 19.8794 5.9406 19.8364C5.89649 19.8231 5.88015 19.7851 5.84257 19.7685C5.805 19.752 5.75762 19.752 5.7135 19.7387C5.63508 19.6874 5.55012 19.6527 5.45863 19.6328C5.39328 19.5915 5.28708 19.517 5.22336 19.4839C4.89006 19.3168 4.462 18.9676 4.21366 18.6913C4.15648 18.6003 4.09113 18.5142 4.01924 18.4332C3.94572 18.3438 3.88037 18.2462 3.82482 18.1452C3.75457 18.0526 3.70065 17.9566 3.6598 17.8573C3.64183 17.7845 3.61242 17.7382 3.56668 17.6803C3.56668 17.6075 3.5438 17.5496 3.49479 17.5082C3.48009 17.4999 3.47028 17.485 3.46538 17.4619C3.46538 17.4519 3.46702 17.4403 3.46538 17.4321C3.43434 17.3609 3.40983 17.2898 3.39023 17.2186C3.39023 17.0912 3.35755 16.9754 3.2971 16.8695L3.30037 16.838C3.28076 16.7619 3.26442 16.6444 3.28566 16.5716C3.26279 16.517 3.22848 16.3515 3.28566 16.3135C3.23011 16.3118 3.20724 16.2059 3.21051 16.1546C3.1909 15.9792 3.17783 15.7724 3.25299 15.6053L3.2971 15.0559C3.35918 14.9814 3.38696 14.8904 3.38042 14.7829C3.42454 14.6852 3.45885 14.5827 3.48172 14.4768C3.55687 14.4188 3.56178 14.3411 3.56668 14.2517C3.61896 14.1971 3.65 14.1326 3.6598 14.0565C3.6598 14.0515 3.6598 14.0465 3.6598 14.0416C3.73006 13.9555 3.78724 13.8513 3.83952 13.7536C3.93102 13.613 4.02251 13.4889 4.12381 13.3582C4.48488 12.9461 4.90477 12.5821 5.38674 12.3339L5.39818 12.3405C5.4766 12.2826 5.56483 12.2297 5.66449 12.2181C5.85564 12.1204 6.06477 12.0592 6.27717 12.0245C6.38336 11.9715 6.51244 11.9467 6.63007 11.9417C6.63334 11.9417 6.6366 11.95 6.64151 11.9599L6.65131 11.9682Z" fill="black"/>
</svg>
