<svg width="72" height="24" viewBox="0 0 72 24" fill="none" xmlns="http://www.w3.org/2000/svg">
<path d="M6.75 3V5.25M17.25 3V5.25M3 18.75V7.5C3 6.90326 3.23705 6.33097 3.65901 5.90901C4.08097 5.48705 4.65326 5.25 5.25 5.25H18.75C19.3467 5.25 19.919 5.48705 20.341 5.90901C20.7629 6.33097 21 6.90326 21 7.5V18.75M3 18.75C3 19.3467 3.23705 19.919 3.65901 20.341C4.08097 20.7629 4.65326 21 5.25 21H18.75C19.3467 21 19.919 20.7629 20.341 20.341C20.7629 19.919 21 19.3467 21 18.75M3 18.75V11.25C3 10.6533 3.23705 10.081 3.65901 9.65901C4.08097 9.23705 4.65326 9 5.25 9H18.75C19.3467 9 19.919 9.23705 20.341 9.65901C20.7629 10.081 21 10.6533 21 11.25V18.75M12 12.75H12.008V12.758H12V12.75ZM12 15H12.008V15.008H12V15ZM12 17.25H12.008V17.258H12V17.25ZM9.75 15H9.758V15.008H9.75V15ZM9.75 17.25H9.758V17.258H9.75V17.25ZM7.5 15H7.508V15.008H7.5V15ZM7.5 17.25H7.508V17.258H7.5V17.25ZM14.25 12.75H14.258V12.758H14.25V12.75ZM14.25 15H14.258V15.008H14.25V15ZM14.25 17.25H14.258V17.258H14.25V17.25ZM16.5 12.75H16.508V12.758H16.5V12.75ZM16.5 15H16.508V15.008H16.5V15Z" stroke="#626262" stroke-width="1.5" stroke-linecap="round" stroke-linejoin="round"/>
<path d="M37.7656 7.20312C37.7656 9.38281 39.8984 11.5781 42.8594 12.0938L42.0781 13.5469C39.7109 13.0547 37.7734 11.6172 36.8516 9.71875C35.9219 11.6016 33.9844 13.0469 31.625 13.5469L30.8594 12.0938C33.7734 11.5625 35.9141 9.375 35.9219 7.20312V6.15625H37.7656V7.20312ZM30.4688 17.5938V16.1562H43.375V17.5938H30.4688ZM50.5625 6.89062C50.5547 8.21875 50.4297 9.49219 50.1016 10.6875H51.8438V5.60938H53.4844V18.7188H51.8438V12.0938H49.5859C48.8125 13.7969 47.4766 15.2969 45.2812 16.5312L44.2969 15.3438C46.2109 14.25 47.3906 12.9766 48.0781 11.5156L44.5469 11.875L44.3438 10.375L48.5703 10.1406C48.7188 9.55469 48.8125 8.9375 48.8594 8.29688H45.0312V6.89062H50.5625ZM54.8281 19.3906V5.26562H56.4844V19.3906H54.8281ZM71 10.9844V12.3594H65.4062V13.4375H69.3906V16.9062H61.3594V17.9375H69.7812V19.2656H59.6562V15.6875H67.6875V14.7344H59.6406V13.4375H63.6875V12.3594H58.125V10.9844H71ZM58.75 9.17188C61.3516 8.98438 63.0547 8.09375 63.4453 7.04688H59.2969V5.70312H69.8438V7.04688H65.6562C66.0391 8.08594 67.7578 8.98438 70.3906 9.17188L69.8438 10.4844C67.3125 10.2812 65.3984 9.42969 64.5469 8.17188C63.6953 9.42969 61.8047 10.2812 59.2969 10.4844L58.75 9.17188Z" fill="#626262"/>
</svg>
