<svg width="86" height="24" viewBox="0 0 86 24" fill="none" xmlns="http://www.w3.org/2000/svg">
<path d="M15.3621 5.21389C17.087 5.98466 18.4951 7.32395 19.3513 9.00803C20.2076 10.6921 20.46 12.619 20.0665 14.4668C19.6729 16.3146 18.6573 17.9714 17.1891 19.1605C15.721 20.3495 13.8894 20.9988 12.0001 20.9999C10.3839 21 8.8033 20.5254 7.45449 19.635C6.10568 18.7447 5.0481 17.4777 4.41306 15.9915C3.77802 14.5053 3.59349 12.8653 3.88239 11.2752C4.17129 9.68501 4.92089 8.21473 6.03812 7.04689C6.80754 8.12235 7.82315 8.99807 9.00012 9.60089C9.02073 8.27951 9.33264 6.97896 9.9136 5.79198C10.4946 4.60499 11.3303 3.56081 12.3611 2.73389C13.1479 3.78908 14.1768 4.63965 15.3611 5.21389H15.3621Z" stroke="#626262" stroke-width="1.5" stroke-linecap="round" stroke-linejoin="round"/>
<path d="M12.0001 18C12.9528 18.0016 13.8704 17.6405 14.5665 16.99C15.2626 16.3396 15.6851 15.4486 15.7481 14.498C15.8111 13.5474 15.5099 12.6084 14.9058 11.8718C14.3016 11.1352 13.4397 10.6562 12.4951 10.532C11.4625 11.4561 10.7822 12.7096 10.5701 14.079C9.79972 13.8902 9.07463 13.5499 8.43712 13.078C8.25178 13.6413 8.20268 14.2406 8.29386 14.8265C8.38503 15.4125 8.61389 15.9685 8.96163 16.4489C9.30937 16.9293 9.76609 17.3203 10.2943 17.59C10.8225 17.8596 11.4071 18.0001 12.0001 18Z" stroke="#626262" stroke-width="1.5" stroke-linecap="round" stroke-linejoin="round"/>
<path d="M35.7969 9.28125C35.7969 11.5938 37.1562 14.0312 39.4375 14.9844L38.4844 16.3594C36.8125 15.6328 35.5938 14.1562 34.9453 12.3594C34.2969 14.2969 33.0547 15.9219 31.4062 16.7031L30.4062 15.3438C32.6328 14.3125 34.0234 11.6797 34.0312 9.28125V8.09375H30.9219V6.65625H38.8906V8.09375H35.7969V9.28125ZM40.4688 19.3906V5.26562H42.2188V19.3906H40.4688ZM56.1406 5.28125V15.9688H54.3906V14.7344H51.625V13.5156H54.3906V5.28125H56.1406ZM44.2344 11.625C46.8359 11.6094 50.3438 11.5859 53.3438 11.2031L53.4375 12.4531C52.2734 12.6484 51.0703 12.7734 49.875 12.8594V15.5781H48.1406V12.9531C46.8203 13.0078 45.5625 13.0156 44.4531 13.0156L44.2344 11.625ZM45.3125 8.29688C45.3125 6.80469 46.75 5.78906 48.8438 5.79688C50.8984 5.78906 52.3438 6.80469 52.3594 8.29688C52.3438 9.8125 50.8984 10.7734 48.8438 10.7812C46.75 10.7734 45.3125 9.8125 45.3125 8.29688ZM46.1094 19.1094V14.9375H47.8438V17.7031H56.4688V19.1094H46.1094ZM46.9531 8.29688C46.9531 9.0625 47.7109 9.50781 48.8438 9.51562C49.9219 9.50781 50.6953 9.0625 50.7031 8.29688C50.6953 7.53125 49.9219 7.07031 48.8438 7.07812C47.7109 7.07031 46.9531 7.53125 46.9531 8.29688ZM69.1875 5.26562V10.8906H71.3594V12.3281H69.1875V19.3906H67.4688V5.26562H69.1875ZM58.0469 8.82812V7.4375H61.3906V5.46875H63.125V7.4375H66.375V8.82812H58.0469ZM58.7031 13.0781C58.6875 11.125 60.2031 9.74219 62.2656 9.75C64.2969 9.74219 65.8047 11.125 65.8125 13.0781C65.8047 15.0234 64.2969 16.3906 62.2656 16.3906C60.2031 16.3906 58.6875 15.0234 58.7031 13.0781ZM60.3594 13.0781C60.3516 14.2266 61.1562 14.9609 62.2656 14.9531C63.3516 14.9609 64.1406 14.2266 64.1562 13.0781C64.1406 11.9297 63.3516 11.1719 62.2656 11.1719C61.1562 11.1719 60.3516 11.9297 60.3594 13.0781ZM83.75 5.26562V19.3906H82V5.26562H83.75ZM72.0469 15.5C75.75 13.7422 77.4531 11.3516 77.7656 8.14062H72.7656V6.76562H79.5312C79.5312 10.9688 77.8984 14.5391 72.9531 16.8906L72.0469 15.5Z" fill="#626262"/>
</svg>
