<svg width="58" height="24" viewBox="0 0 58 24" fill="none" xmlns="http://www.w3.org/2000/svg">
<path d="M8.99995 9L19.5 6M19.5 12.553V16.303C19.4999 16.7919 19.3405 17.2674 19.0461 17.6577C18.7516 18.048 18.338 18.3317 17.868 18.466L16.548 18.843C16.3191 18.9122 16.0787 18.9351 15.8409 18.9105C15.6031 18.8859 15.3725 18.8143 15.1626 18.6997C14.9528 18.5852 14.7678 18.43 14.6184 18.2433C14.4691 18.0566 14.3584 17.842 14.2927 17.6121C14.2271 17.3822 14.2078 17.1416 14.236 16.9041C14.2643 16.6667 14.3394 16.4373 14.4572 16.2292C14.5749 16.0211 14.7329 15.8385 14.9219 15.692C15.1108 15.5455 15.3271 15.4381 15.558 15.376L17.868 14.716C18.338 14.5817 18.7516 14.298 19.0461 13.9077C19.3405 13.5174 19.4999 13.0419 19.5 12.553ZM19.5 12.553V2.25L8.99995 5.25V15.553M8.99995 15.553V19.303C8.99985 19.7919 8.84052 20.2674 8.54606 20.6577C8.2516 21.048 7.83804 21.3317 7.36795 21.466L6.04795 21.843C5.59081 21.966 5.10362 21.9043 4.6916 21.6711C4.27958 21.438 3.97577 21.0522 3.84579 20.597C3.7158 20.1418 3.77007 19.6537 3.99686 19.2382C4.22366 18.8226 4.60479 18.5129 5.05795 18.376L7.36795 17.716C7.83804 17.5817 8.2516 17.298 8.54606 16.9077C8.84052 16.5174 8.99985 16.0419 8.99995 15.553Z" stroke="white" stroke-width="1.5" stroke-linecap="round" stroke-linejoin="round"/>
<path d="M35.4375 9.75C35.4375 11.8438 36.6172 14.125 38.7969 15.1562L37.8281 16.4688C36.2969 15.7656 35.1953 14.3594 34.6016 12.7109C33.9844 14.4922 32.8203 15.9922 31.2031 16.7188L30.25 15.375C32.4766 14.375 33.7188 11.9688 33.7188 9.75V9.01562H30.7031V7.625H33.7188V5.5625H35.4531V7.625H38.4219V9.01562H35.4375V9.75ZM39.7969 19.3906V5.26562H41.5312V10.8594H43.7031V12.3125H41.5312V19.3906H39.7969ZM55.7812 12.6719V14.0469H45.875V6.375H55.6562V7.78125H47.6406V9.48438H55.3281V10.8438H47.6406V12.6719H55.7812ZM44.2969 17.6719V16.25H57.2031V17.6719H44.2969Z" fill="white"/>
</svg>
