<svg width="44" height="24" viewBox="0 0 44 24" fill="none" xmlns="http://www.w3.org/2000/svg">
<path d="M2.25 12.0001L11.204 3.04507C11.644 2.60607 12.356 2.60607 12.795 3.04507L21.75 12.0001M4.5 9.75007V19.8751C4.5 20.4961 5.004 21.0001 5.625 21.0001H9.75V16.1251C9.75 15.5041 10.254 15.0001 10.875 15.0001H13.125C13.746 15.0001 14.25 15.5041 14.25 16.1251V21.0001H18.375C18.996 21.0001 19.5 20.4961 19.5 19.8751V9.75007M8.25 21.0001H16.5" stroke="white" stroke-width="1.5" stroke-linecap="round" stroke-linejoin="round"/>
<path d="M41.7812 15.1094V19.2188H31.9844V15.1094H41.7812ZM30.4688 14.2812V12.9062H36.0312V12.0859C33.5781 11.9688 32.2031 11.2969 32.2031 10.0938C32.2031 8.76562 33.8984 8.09375 36.8906 8.09375C39.9141 8.09375 41.5859 8.76562 41.5938 10.0938C41.5859 11.2969 40.2344 11.9688 37.7656 12.0859V12.9062H43.3438V14.2812H30.4688ZM31.1094 7.65625V6.34375H36.0312V5.10938H37.7656V6.34375H42.6406V7.65625H31.1094ZM33.7031 17.9062H40.0938V16.4219H33.7031V17.9062ZM34.0625 10.0938C34.0625 10.6484 35.0234 10.9219 36.8906 10.9219C38.7891 10.9219 39.7266 10.6484 39.7344 10.0938C39.7266 9.52344 38.7891 9.27344 36.8906 9.26562C35.0234 9.27344 34.0625 9.52344 34.0625 10.0938Z" fill="white"/>
</svg>
