<svg width="58" height="24" viewBox="0 0 58 24" fill="none" xmlns="http://www.w3.org/2000/svg">
<path d="M9.00008 9L19.5001 6M19.5001 12.553V16.303C19.5 16.7919 19.3406 17.2674 19.0462 17.6577C18.7517 18.048 18.3382 18.3317 17.8681 18.466L16.5481 18.843C16.3192 18.9122 16.0789 18.9351 15.841 18.9105C15.6032 18.8859 15.3726 18.8143 15.1628 18.6997C14.9529 18.5852 14.7679 18.43 14.6186 18.2433C14.4692 18.0566 14.3585 17.842 14.2928 17.6121C14.2272 17.3822 14.2079 17.1416 14.2362 16.9041C14.2644 16.6667 14.3396 16.4373 14.4573 16.2292C14.5751 16.0211 14.733 15.8385 14.922 15.692C15.111 15.5455 15.3272 15.4381 15.5581 15.376L17.8681 14.716C18.3382 14.5817 18.7517 14.298 19.0462 13.9077C19.3406 13.5174 19.5 13.0419 19.5001 12.553ZM19.5001 12.553V2.25L9.00008 5.25V15.553M9.00008 15.553V19.303C8.99998 19.7919 8.84064 20.2674 8.54618 20.6577C8.25172 21.048 7.83816 21.3317 7.36808 21.466L6.04808 21.843C5.59093 21.966 5.10375 21.9043 4.69172 21.6711C4.2797 21.438 3.9759 21.0522 3.84591 20.597C3.71593 20.1418 3.77019 19.6537 3.99698 19.2382C4.22378 18.8226 4.60491 18.5129 5.05808 18.376L7.36808 17.716C7.83816 17.5817 8.25172 17.298 8.54618 16.9077C8.84064 16.5174 8.99998 16.0419 9.00008 15.553Z" stroke="#626262" stroke-width="1.5" stroke-linecap="round" stroke-linejoin="round"/>
<path d="M35.4375 9.75C35.4375 11.8438 36.6172 14.125 38.7969 15.1562L37.8281 16.4688C36.2969 15.7656 35.1953 14.3594 34.6016 12.7109C33.9844 14.4922 32.8203 15.9922 31.2031 16.7188L30.25 15.375C32.4766 14.375 33.7188 11.9688 33.7188 9.75V9.01562H30.7031V7.625H33.7188V5.5625H35.4531V7.625H38.4219V9.01562H35.4375V9.75ZM39.7969 19.3906V5.26562H41.5312V10.8594H43.7031V12.3125H41.5312V19.3906H39.7969ZM55.7812 12.6719V14.0469H45.875V6.375H55.6562V7.78125H47.6406V9.48438H55.3281V10.8438H47.6406V12.6719H55.7812ZM44.2969 17.6719V16.25H57.2031V17.6719H44.2969Z" fill="#626262"/>
</svg>
