<svg width="30" height="33" viewBox="0 0 30 33" fill="none" xmlns="http://www.w3.org/2000/svg">
<g opacity="0.2">
<path d="M8.30956 0.0230448C13.8424 -0.00177466 19.3736 0.00531672 24.9065 0.0425459L25.0307 0.0726861H29.8407C29.902 0.035457 29.965 0.031911 30 0.102824V0.671896L29.972 0.709126C29.9387 0.957321 29.9055 1.20551 29.8722 1.45371L29.8215 1.62744C29.7899 1.86677 29.7427 2.10256 29.6814 2.33657L29.6622 2.34898C29.5957 2.44649 29.5624 2.56172 29.5606 2.69291C29.5011 2.76914 29.4714 2.85069 29.4731 2.93933C29.4189 3.0262 29.3821 3.12193 29.3664 3.22475C29.2806 3.38076 29.2141 3.54208 29.1511 3.7105L29.1091 3.76723C29.0548 3.92147 28.9725 4.06684 28.8903 4.20334L28.899 4.21576C28.6907 4.59868 28.4352 4.96566 28.1831 5.32554C28.1446 5.35036 28.1131 5.38581 28.0868 5.42304C28.0991 5.42836 28.0991 5.43368 28.0868 5.439L27.9906 5.5365C28.0046 5.54182 28.0046 5.54714 27.9906 5.55246C27.8278 5.7386 27.6615 5.92298 27.4917 6.10558C27.3762 6.21727 27.2642 6.33072 27.1539 6.44773C26.9299 6.67642 26.6778 6.87675 26.3995 7.05049C26.2892 7.13204 26.1737 7.20827 26.0529 7.27918C26.0162 7.33059 25.9637 7.3625 25.8936 7.37846L25.8499 7.4281C25.7186 7.49901 25.5908 7.57347 25.4683 7.65325C25.4141 7.67452 25.365 7.70466 25.3213 7.7472C25.0972 7.84648 24.8784 7.94576 24.6649 8.04504C24.6491 8.05035 24.6264 8.05568 24.6001 8.06099C24.5966 8.07163 24.5896 8.07163 24.5844 8.06099C24.5091 8.09113 24.4356 8.12304 24.3586 8.1585C24.3551 8.16736 24.3481 8.16736 24.3428 8.1585C24.1468 8.2365 23.9385 8.29678 23.732 8.35351C23.6164 8.36946 23.5027 8.40315 23.3941 8.45633C23.2454 8.47406 23.1036 8.50597 22.9688 8.55384C22.7203 8.56447 22.4787 8.59993 22.2494 8.66198C19.4506 8.66907 16.6518 8.66198 13.8529 8.64602L11.8575 8.67616C11.7105 8.70984 11.5565 8.71693 11.3937 8.69921C11.3184 8.7453 11.2222 8.74885 11.1346 8.75239C10.6988 8.73112 10.2717 8.76303 9.85512 8.8499C9.53831 8.82862 9.23375 8.86053 8.94144 8.94208C8.69639 8.9279 8.46884 8.96158 8.25704 9.04136L8.005 9.05023C7.98049 9.05732 7.95773 9.05732 7.94023 9.05023C7.85096 9.05023 7.76695 9.06795 7.69868 9.13177C7.69343 9.14064 7.68818 9.14064 7.68293 9.13177C7.67593 9.14241 7.66017 9.14773 7.63392 9.14773C7.57966 9.15659 7.5254 9.15659 7.47289 9.14773C7.37312 9.14773 7.28735 9.17432 7.21558 9.22928C7.21208 9.24346 7.20508 9.24169 7.19983 9.22928L7.15082 9.24523C7.12106 9.25764 7.0563 9.27183 7.0388 9.24523C6.93378 9.24169 6.84801 9.26828 6.7815 9.32678H6.76574L6.73423 9.34274C6.59946 9.34983 6.47168 9.38174 6.35441 9.43847C6.23013 9.45088 6.11461 9.48456 6.00608 9.54129C5.88006 9.5537 5.76629 9.59093 5.66127 9.65121C5.5615 9.65121 5.47748 9.6778 5.40921 9.72921C5.3497 9.76467 5.30419 9.77176 5.27094 9.74871C5.21667 9.75935 5.17642 9.78417 5.14316 9.83026C5.13791 9.84445 5.13266 9.84445 5.12741 9.83026L5.0784 9.84622C5.06614 9.8604 5.03989 9.86395 5.02939 9.84622C4.96637 9.85154 4.92087 9.87458 4.88411 9.92777C4.87886 9.93663 4.8736 9.93663 4.86835 9.92777C4.78434 9.95082 4.70732 9.98804 4.63906 10.0412C4.55679 10.0519 4.48853 10.0838 4.43252 10.1352C4.28724 10.1777 4.15946 10.2575 4.03343 10.3355C3.6431 10.5447 3.26853 10.784 2.90795 11.0517C2.51937 11.3372 2.1833 11.6634 1.89625 12.0286C1.85774 12.103 1.77547 12.1987 1.70371 12.2395C1.62144 12.3211 1.55143 12.415 1.49541 12.5161C1.50942 12.5214 1.50942 12.5267 1.49541 12.532C1.45691 12.5551 1.4359 12.5923 1.4149 12.6295C1.4289 12.6349 1.4289 12.6402 1.4149 12.6455C1.35363 12.6898 1.31163 12.7519 1.28887 12.8316L1.22236 12.9221C1.23636 12.9274 1.23636 12.9327 1.22236 12.938L1.2066 12.954C1.15584 13.0001 1.12434 13.055 1.11034 13.1171C1.11734 13.1224 1.11734 13.1277 1.11034 13.133C1.03857 13.2323 0.973808 13.3404 0.917796 13.4592C0.93355 13.4645 0.9388 13.4734 0.933549 13.4858C0.886289 13.5798 0.842531 13.672 0.805774 13.7695C0.783019 13.8315 0.756762 13.8918 0.725256 13.9485L0.656992 14.0797C0.602731 14.2729 0.529218 14.4573 0.453953 14.6435L0.425946 14.8509C0.364684 14.9767 0.324424 15.1097 0.306921 15.2498L0.271914 15.3029C0.228155 15.4926 0.170392 15.5405 0.0986276 15.4448L0.0793762 15.3508C0.0793762 14.5477 0.088126 13.7429 0.10738 12.9362C0.0863756 11.4577 0.0846263 9.9845 0.124885 8.50597C0.180896 8.25955 0.208901 8.00958 0.208901 7.75784C0.280666 7.59297 0.303422 7.4476 0.308673 7.25791L0.30167 7.24727C0.427695 6.70833 0.586979 6.19599 0.79177 5.67833C0.849532 5.60919 0.879289 5.52764 0.896793 5.439C1.00006 5.2369 1.09808 5.0348 1.1926 4.8327L1.23636 4.77597C1.50066 4.30085 1.79998 3.80801 2.1728 3.40203C2.42485 3.03329 2.75742 2.70709 3.08824 2.40926C3.27028 2.24438 3.45757 2.0866 3.6501 1.93769C3.78488 1.83486 3.91791 1.73204 4.05094 1.62922C4.11395 1.60617 4.15421 1.59199 4.18922 1.52994C4.30124 1.46966 4.40976 1.40407 4.51653 1.33493L4.53228 1.31898C4.53228 1.31898 4.54279 1.31188 4.54804 1.31898C4.61455 1.26402 4.69157 1.21261 4.77383 1.17715C4.78784 1.17183 4.79659 1.1736 4.80534 1.18779L4.85435 1.12219C4.85785 1.10801 4.8631 1.10801 4.8701 1.12219C4.94887 1.11687 5.00663 1.08496 5.04689 1.02469C5.05039 1.0105 5.05564 1.0105 5.06264 1.02469L5.12741 1.00873C5.13266 0.99455 5.13791 0.99455 5.14316 1.00873C5.21142 0.944911 5.28669 0.902363 5.37071 0.882862C5.43022 0.826131 5.50374 0.794222 5.593 0.781812L5.64026 0.732171C5.64551 0.721534 5.65076 0.710897 5.65777 0.707352C5.90807 0.600983 6.15837 0.494614 6.41742 0.41661C6.53469 0.398882 6.64147 0.375835 6.73774 0.308468C6.88127 0.299604 7.01079 0.257057 7.14382 0.203873C7.34861 0.166644 7.55165 0.131189 7.75294 0.0975054C7.75294 0.0939598 7.75644 0.0904126 7.75819 0.0904126C7.8002 0.0850942 7.95948 0.0655929 7.98399 0.0762298C7.98924 0.0780026 7.99274 0.0868685 7.99449 0.0975054C7.99274 0.0868685 7.99099 0.0780026 7.99449 0.0762298C8.03475 0.0496375 8.24304 0.00531845 8.29906 0C8.30081 0 8.30431 0.00708964 8.30781 0.0177265L8.30956 0.0230448Z" fill="#FFF8E8"/>
<path d="M29.757 24.5325C29.7202 24.6956 29.6939 24.864 29.6764 25.0342C29.6187 25.1689 29.5977 25.2984 29.5784 25.442L29.5137 25.5643C29.4979 25.6901 29.4839 25.7947 29.4139 25.9029C29.4069 26.0093 29.3736 26.1014 29.3159 26.1794C29.2879 26.316 29.2424 26.4454 29.1793 26.5659C29.0901 26.7857 28.9938 26.9967 28.887 27.2165C28.733 27.5357 28.5545 27.8583 28.3357 28.1402C28.2639 28.2944 28.1589 28.438 28.0539 28.5674C27.8596 28.8404 27.646 29.0957 27.4115 29.3315C27.2014 29.5762 26.9581 29.8102 26.7271 30.0318H26.7043C26.3648 30.3207 25.9884 30.631 25.5999 30.865C25.5859 30.8739 25.5666 30.8774 25.5473 30.8774L25.4196 30.9749C25.4143 30.9891 25.4091 30.9891 25.4038 30.9749C25.3531 31.005 25.3058 31.037 25.2585 31.0724C25.2463 31.099 25.234 31.1026 25.227 31.0724C25.1623 31.1398 25.087 31.1841 25.0047 31.2072C24.8857 31.2798 24.7579 31.3419 24.6267 31.3933C24.4849 31.4784 24.3239 31.5724 24.1628 31.6043L24.0385 31.6752C23.9615 31.7213 23.881 31.7532 23.797 31.7727C23.699 31.7851 23.608 31.817 23.5239 31.8702C23.5222 31.8826 23.5169 31.8808 23.5082 31.8702C23.3962 31.879 23.3069 31.9145 23.2054 31.9659C23.0671 31.9961 22.9323 32.028 22.801 32.0652C22.563 32.1184 22.3214 32.1627 22.0764 32.1964L22.0624 32.1787C21.9399 32.1893 21.8103 32.2212 21.6931 32.2602C21.6878 32.2691 21.6826 32.2691 21.6773 32.2602C21.6721 32.2673 21.6668 32.2673 21.6616 32.2602C16.1304 32.2726 10.3437 32.2815 4.80911 32.2602C4.79511 32.2726 4.77585 32.2726 4.7601 32.2602L4.72859 32.2442C4.72509 32.2584 4.71984 32.2584 4.71284 32.2442L4.64983 32.2159C3.16727 32.1946 1.64096 32.1964 0.160157 32.2035C0.0638872 32.2425 0.0131277 32.223 0.00787661 32.1467C-0.00262554 32.1361 -0.00262554 32.1255 0.00787661 32.1148C0.00262554 31.9358 0.011378 31.762 0.035883 31.5919L0.0638893 31.5653C0.0761418 31.3295 0.0953951 31.0955 0.123401 30.8597C0.179412 30.7019 0.210919 30.5335 0.21617 30.358C0.270431 30.2268 0.300185 30.0938 0.315939 29.9467C0.37195 29.8456 0.403458 29.7322 0.410459 29.6098C0.469972 29.5301 0.501479 29.4414 0.501479 29.3457C0.55574 29.2712 0.588995 29.1861 0.601248 29.0904C0.590746 29.0886 0.592496 29.0815 0.601248 29.0745C0.652008 29.0106 0.685266 28.9397 0.697518 28.8635L0.688766 28.844L0.793788 28.6188C0.968824 28.2483 1.16836 27.8796 1.39416 27.5162L1.50093 27.3672C1.68297 27.0783 1.90526 26.8106 2.12931 26.5606C2.15031 26.5251 2.16957 26.4897 2.19057 26.456C2.53014 26.0961 2.89422 25.7557 3.2828 25.4313L3.68538 25.1388C3.85516 25.0342 4.01444 24.9314 4.16673 24.8303C4.20523 24.7949 4.24724 24.7683 4.2945 24.7488C4.35752 24.7328 4.41528 24.7009 4.46779 24.6531C4.83361 24.4669 5.20294 24.2985 5.57927 24.146C5.67204 24.1425 5.7613 24.1106 5.84882 24.0467C6.25665 23.928 6.65224 23.8234 7.03556 23.7347C7.28762 23.7223 7.52741 23.6816 7.77246 23.6337C9.6681 23.6018 11.5655 23.6035 13.4629 23.639C15.0102 23.6443 16.6013 23.6301 18.1188 23.6106C18.2571 23.5663 18.4024 23.5521 18.5512 23.5699L18.7385 23.5433C18.9205 23.522 19.1043 23.5131 19.2916 23.5202C20.3488 23.4458 21.3797 23.3181 22.3845 23.1373C22.5367 23.1373 22.682 23.1072 22.8168 23.0416C22.9691 23.0398 23.1091 23.0061 23.2386 22.9387C23.3769 22.9281 23.5047 22.9157 23.6237 22.8412C23.748 22.843 23.8565 22.8111 23.9528 22.7437C24.0753 22.7473 24.1838 22.7136 24.2748 22.6445C24.3904 22.6427 24.4866 22.609 24.5654 22.5469C24.6722 22.5452 24.7579 22.5115 24.8209 22.4494C24.9225 22.4353 25.0047 22.4175 25.0905 22.3519C25.1763 22.3324 25.255 22.2988 25.3268 22.2473C25.5368 22.1676 25.7469 22.0754 25.9324 21.9495C26.1792 21.8538 26.4155 21.6978 26.6273 21.5418C26.6326 21.5276 26.6378 21.5276 26.6431 21.5418C26.6938 21.5187 26.7341 21.4833 26.7708 21.4443C26.9931 21.2812 27.2067 21.1127 27.4132 20.939C27.6565 20.7209 27.8876 20.4798 28.1064 20.2157L28.1519 20.1909C28.4809 19.8292 28.7698 19.3878 28.9675 18.9464L29.0218 18.8932C29.0691 18.7762 29.1181 18.6609 29.1671 18.5439L29.2143 18.4837C29.2704 18.2975 29.3369 18.1131 29.4209 17.9394C29.4349 17.8277 29.4541 17.7302 29.5154 17.6327C29.5277 17.5104 29.5364 17.4217 29.6204 17.326L29.6432 17.131C29.6432 17.1044 29.6397 17.0725 29.6432 17.0494C29.6467 17.0264 29.7587 16.7888 29.771 16.78C29.8462 16.7321 29.8795 16.8491 29.8847 16.9094C29.932 17.4129 29.8707 18.0404 29.8672 18.5528C29.8567 20.3451 29.904 22.1552 29.834 23.9368C29.736 24.1088 29.799 24.3428 29.757 24.5343V24.5325Z" fill="#FFF8E8"/>
<path d="M4.984 11.8172C5.11352 11.8084 5.21679 11.8243 5.34457 11.7676H9.15335L9.34414 11.8172C13.7988 11.8208 18.2587 11.8013 22.7116 11.8332C23.34 11.8385 24.1312 11.7712 24.7368 11.8332C24.8296 11.8421 24.9346 11.9023 25.0116 11.913C25.1149 11.9289 25.2601 11.913 25.3599 11.9343C25.4072 11.9431 25.4439 11.991 25.4842 12.0052C25.5507 12.0282 25.6435 12.0176 25.71 12.0371C25.7537 12.0495 25.7817 12.0903 25.8185 12.1062C25.8763 12.131 25.9428 12.1169 25.9953 12.1399C26.0303 12.1541 26.0531 12.2037 26.0951 12.2179C26.1441 12.2339 26.2001 12.2232 26.2526 12.2534C26.3051 12.2835 26.4346 12.3881 26.4819 12.4111C26.5134 12.4253 26.5502 12.4182 26.5834 12.4377C26.6167 12.4572 26.6219 12.498 26.6517 12.514C26.7304 12.5583 26.7234 12.5476 26.8022 12.6061C26.8285 12.6257 26.8722 12.6221 26.8967 12.6398C26.9212 12.6576 26.9195 12.6948 26.9335 12.709C26.9387 12.7143 27.0333 12.7817 27.063 12.8047C27.2976 12.9926 27.4288 13.0813 27.6039 13.3241C27.7141 13.4784 27.8612 13.622 27.9644 13.7727C28.0047 13.8294 27.9907 13.9216 28.0852 13.9499C28.0852 13.9553 28.0852 13.9606 28.0852 13.9659C28.0975 14.0315 28.1395 14.0811 28.1815 14.129C28.1832 14.1343 28.1815 14.1396 28.1815 14.145L28.1972 14.1946C28.1972 14.1946 28.1972 14.2052 28.1972 14.2105C28.22 14.2513 28.2428 14.2921 28.2778 14.324C28.2795 14.3276 28.2778 14.3346 28.2778 14.34L28.2935 14.3719C28.2953 14.3807 28.2918 14.3949 28.2935 14.4038C28.3093 14.4552 28.3355 14.4977 28.374 14.5332C28.374 14.5385 28.374 14.5438 28.374 14.5492C28.3863 14.574 28.3915 14.6006 28.3898 14.6307C28.3898 14.636 28.3898 14.6413 28.3898 14.6467C28.402 14.6963 28.4143 14.7424 28.4545 14.7761C28.4931 14.8842 28.4738 14.9392 28.4931 15.0367C28.5088 15.1094 28.5701 15.1572 28.5806 15.2406C28.5893 15.3026 28.5753 15.3717 28.5806 15.4338C28.6296 15.8486 28.7171 16.0649 28.6471 16.5099C28.6156 16.7084 28.6086 16.9336 28.5771 17.1233C28.5666 17.1871 28.5228 17.2243 28.5053 17.2775C28.4773 17.3591 28.4948 17.4353 28.465 17.5133C28.4475 17.5594 28.4055 17.5878 28.395 17.6214C28.381 17.6693 28.3915 17.7207 28.3723 17.7775C28.346 17.8608 28.255 17.9299 28.2743 18.0451C28.248 18.1072 28.213 18.1852 28.178 18.2402L28.1307 18.2916C28.0187 18.5167 27.8717 18.7312 27.7124 18.9245C27.7176 18.9404 27.7124 18.9457 27.6966 18.9404C27.6704 18.9581 27.6476 18.9794 27.6249 19.0042C27.3956 19.2702 27.2923 19.3872 27.028 19.5893L26.9842 19.6478C26.888 19.6903 26.7987 19.7524 26.7164 19.8339C26.7129 19.8357 26.7042 19.8321 26.7007 19.8339C26.6324 19.8623 26.5817 19.8995 26.5239 19.9474C26.5187 19.9474 26.5134 19.9474 26.5081 19.9474C26.4591 19.9562 26.4224 19.9775 26.3961 20.013C26.3156 20.0502 26.2228 20.1105 26.1581 20.1388C26.1126 20.1601 26.0496 20.1495 26.0093 20.1672C25.9848 20.1796 25.9655 20.2168 25.9165 20.2364C25.8553 20.2594 25.7975 20.2488 25.7415 20.2718C25.7012 20.2878 25.6697 20.3339 25.6225 20.3463C25.563 20.3622 25.5017 20.348 25.4404 20.3587C25.3669 20.3693 25.3127 20.4119 25.2514 20.4367C24.616 20.4952 23.8931 20.5094 23.207 20.5076C20.0651 20.465 16.8794 20.4455 13.6518 20.4526C10.8459 20.4473 8.03837 20.4579 5.23255 20.4526C5.08027 20.4225 4.92623 20.3835 4.7722 20.3569C4.61817 20.3303 4.37312 20.2931 4.22259 20.247C4.17533 20.2328 4.15783 20.192 4.11757 20.1743C4.07731 20.1566 4.02655 20.1566 3.97929 20.1424C3.89527 20.0874 3.80426 20.0502 3.70624 20.0289C3.63622 19.9846 3.52245 19.9048 3.45418 19.8694C3.09711 19.6903 2.63852 19.3163 2.37246 19.0202C2.3112 18.9227 2.24119 18.8305 2.16417 18.7436C2.0854 18.6479 2.01539 18.5433 1.95588 18.4352C1.88061 18.3359 1.82285 18.2331 1.77909 18.1267C1.75984 18.0487 1.72833 17.9991 1.67932 17.937C1.67932 17.859 1.65481 17.797 1.6023 17.7526C1.58655 17.7438 1.57605 17.7278 1.5708 17.703C1.5708 17.6924 1.57255 17.6799 1.5708 17.6711C1.53754 17.5949 1.51129 17.5186 1.49028 17.4424C1.49028 17.3059 1.45528 17.1818 1.39051 17.0683L1.39401 17.0346C1.37301 16.9531 1.3555 16.8272 1.37826 16.7492C1.35375 16.6907 1.317 16.5134 1.37826 16.4727C1.31875 16.4709 1.29424 16.3574 1.29774 16.3025C1.27674 16.1146 1.26274 15.893 1.34325 15.7139L1.39051 15.1253C1.45703 15.0455 1.48678 14.948 1.47978 14.8328C1.52704 14.7282 1.5638 14.6183 1.5883 14.5048C1.66882 14.4428 1.67407 14.3595 1.67932 14.2637C1.73533 14.2052 1.76859 14.1361 1.77909 14.0545C1.77909 14.0492 1.77909 14.0439 1.77909 14.0386C1.85435 13.9464 1.91562 13.8347 1.97163 13.7301C2.06965 13.5794 2.16767 13.4465 2.27619 13.3064C2.66302 12.865 3.11286 12.475 3.62922 12.209L3.64147 12.2161C3.72549 12.1541 3.82001 12.0974 3.92678 12.0849C4.13157 11.9803 4.35562 11.9148 4.58316 11.8775C4.69694 11.8208 4.83522 11.7942 4.96124 11.7889C4.96474 11.7889 4.96824 11.7977 4.97349 11.8084L4.984 11.8172Z" fill="#FFF8E8"/>
</g>
</svg>
