<svg preserveAspectRatio="none" width="100%" height="100%" overflow="visible" style="display: block;" viewBox="0 0 22 22" fill="none" xmlns="http://www.w3.org/2000/svg">
<g id="Frame">
<path id="Vector" d="M10.3125 4.15525C8.87618 3.23525 7.2057 2.74747 5.5 2.75C4.48524 2.74896 3.47774 2.92101 2.52083 3.25875C2.38681 3.30613 2.27077 3.3939 2.18869 3.50996C2.10661 3.62603 2.06252 3.76468 2.0625 3.90683V16.9693C2.06252 17.0793 2.08892 17.1877 2.13948 17.2853C2.19005 17.383 2.26331 17.4671 2.35311 17.5306C2.44291 17.5941 2.54664 17.6351 2.65557 17.6502C2.76451 17.6653 2.87548 17.6541 2.97917 17.6174C3.78889 17.3318 4.64139 17.1864 5.5 17.1875C7.32875 17.1875 9.00442 17.8356 10.3125 18.9163V4.15525ZM11.6875 18.9163C13.0409 17.7963 14.7433 17.1847 16.5 17.1875C17.3855 17.1875 18.2325 17.3397 19.0208 17.6183C19.1246 17.655 19.2356 17.6663 19.3447 17.6511C19.4537 17.636 19.5574 17.5949 19.6473 17.5313C19.7371 17.4677 19.8103 17.3834 19.8608 17.2857C19.9113 17.1879 19.9376 17.0794 19.9375 16.9693V3.90683C19.9375 3.76468 19.8934 3.62603 19.8113 3.50996C19.7292 3.3939 19.6132 3.30613 19.4792 3.25875C18.5223 2.92101 17.5148 2.74896 16.5 2.75C14.7943 2.74747 13.1238 3.23525 11.6875 4.15525V18.9163Z" fill="var(--fill-0, white)"/>
</g>
</svg>
