<svg width="36" height="36" viewBox="0 0 36 36" fill="none" xmlns="http://www.w3.org/2000/svg">
<path d="M6 27C5.575 27 5.21875 26.8563 4.93125 26.5688C4.64375 26.2812 4.5 25.925 4.5 25.5C4.5 25.075 4.64375 24.7188 4.93125 24.4313C5.21875 24.1438 5.575 24 6 24H30C30.425 24 30.7813 24.1438 31.0688 24.4313C31.3563 24.7188 31.5 25.075 31.5 25.5C31.5 25.925 31.3563 26.2812 31.0688 26.5688C30.7813 26.8563 30.425 27 30 27H6ZM6 19.5C5.575 19.5 5.21875 19.3563 4.93125 19.0688C4.64375 18.7812 4.5 18.425 4.5 18C4.5 17.575 4.64375 17.2188 4.93125 16.9313C5.21875 16.6438 5.575 16.5 6 16.5H30C30.425 16.5 30.7813 16.6438 31.0688 16.9313C31.3563 17.2188 31.5 17.575 31.5 18C31.5 18.425 31.3563 18.7812 31.0688 19.0688C30.7813 19.3563 30.425 19.5 30 19.5H6ZM6 12C5.575 12 5.21875 11.8563 4.93125 11.5688C4.64375 11.2812 4.5 10.925 4.5 10.5C4.5 10.075 4.64375 9.71875 4.93125 9.43125C5.21875 9.14375 5.575 9 6 9H30C30.425 9 30.7813 9.14375 31.0688 9.43125C31.3563 9.71875 31.5 10.075 31.5 10.5C31.5 10.925 31.3563 11.2812 31.0688 11.5688C30.7813 11.8563 30.425 12 30 12H6Z" fill="#E3E3E3"/>
</svg>
