<svg width="24" height="24" viewBox="0 0 24 24" fill="none" xmlns="http://www.w3.org/2000/svg">
<g opacity="0.1" clip-path="url(#clip0_1_46)">
<path d="M15.3096 17.081C15.035 16.8063 14.59 16.8063 14.3154 17.081L12.7031 18.6932V13.3593C12.7031 12.9707 12.3887 12.6562 12 12.6562C11.6114 12.6562 11.2969 12.9707 11.2969 13.3593V18.6932L9.68462 17.0809C9.40998 16.8063 8.965 16.8063 8.69036 17.0809C8.41571 17.3556 8.41571 17.8006 8.69036 18.0752L11.502 20.8869C11.7695 21.1551 12.2173 21.1682 12.498 20.8869L15.3096 18.0752C15.5843 17.8006 15.5843 17.3556 15.3096 17.081Z" fill="url(#paint0_linear_1_46)"/>
<path d="M17.625 21.1874C17.2364 21.1874 16.9219 21.5019 16.9219 21.8906V22.5937H7.07812V21.8906C7.07812 21.5019 6.76364 21.1874 6.375 21.1874C5.98636 21.1874 5.67188 21.5019 5.67188 21.8906V23.2968C5.67188 23.6855 5.98636 23.9999 6.375 23.9999H17.625C18.0136 23.9999 18.3281 23.6855 18.3281 23.2968V21.8906C18.3281 21.5019 18.0136 21.1874 17.625 21.1874ZM19.492 0.171596C19.3382 0.0383769 19.1322 -0.0213419 18.9317 0.00678312L9.08794 1.41303C8.74186 1.46249 8.48438 1.75911 8.48438 2.10931V10.2219C8.07037 9.98188 7.59028 9.84369 7.07812 9.84369C5.52698 9.84369 4.26562 11.105 4.26562 12.6562C4.26562 14.2073 5.52698 15.4687 7.07812 15.4687C8.62927 15.4687 9.89062 14.2073 9.89062 12.6562V5.5318L18.3281 4.3265V8.81567C17.9141 8.57563 17.434 8.43744 16.9219 8.43744C15.3707 8.43744 14.1094 9.6988 14.1094 11.2499C14.1094 12.8011 15.3707 14.0624 16.9219 14.0624C18.473 14.0624 19.7344 12.8011 19.7344 11.2499V0.703064C19.7344 0.499158 19.6458 0.305517 19.492 0.171596Z" fill="url(#paint1_linear_1_46)"/>
</g>
<defs>
<linearGradient id="paint0_linear_1_46" x1="12" y1="21.093" x2="12" y2="12.6562" gradientUnits="userSpaceOnUse">
<stop stop-color="#FFE59A"/>
<stop offset="1" stop-color="#FFFFD5"/>
</linearGradient>
<linearGradient id="paint1_linear_1_46" x1="12" y1="23.9999" x2="12" y2="-1.33515e-05" gradientUnits="userSpaceOnUse">
<stop stop-color="#FD5900"/>
<stop offset="1" stop-color="#FFDE00"/>
</linearGradient>
<clipPath id="clip0_1_46">
<rect width="24" height="24" fill="white"/>
</clipPath>
</defs>
</svg>
