<svg width="24" height="24" viewBox="0 0 24 24" fill="none" xmlns="http://www.w3.org/2000/svg">
<g opacity="0.1" clip-path="url(#clip0_1_86)">
<path d="M3.51562 19.7344H0.703125C0.314812 19.7344 0 20.0492 0 20.4375C0 20.8258 0.314812 21.1406 0.703125 21.1406H3.51562C3.90394 21.1406 4.21875 20.8258 4.21875 20.4375C4.21875 20.0492 3.90394 19.7344 3.51562 19.7344ZM23.2969 19.7344H6.32812C5.93981 19.7344 5.625 20.0492 5.625 20.4375C5.625 20.8258 5.93981 21.1406 6.32812 21.1406H23.2969C23.6852 21.1406 24 20.8258 24 20.4375C24 20.0492 23.6852 19.7344 23.2969 19.7344ZM23.2969 1.45312H0.703125C0.314812 1.45312 0 1.76794 0 2.15625V16.2188C0 16.6071 0.314812 16.9219 0.703125 16.9219H23.2969C23.6852 16.9219 24 16.6071 24 16.2188V2.15625C24 1.76794 23.6852 1.45312 23.2969 1.45312Z" fill="url(#paint0_linear_1_86)"/>
<path d="M15.1269 8.55855L9.50194 5.74605C9.28397 5.63707 9.02517 5.64869 8.81784 5.77685C8.61056 5.90496 8.48438 6.13127 8.48438 6.37498V12C8.48438 12.2437 8.61056 12.47 8.81784 12.5981C8.93077 12.6679 9.05897 12.7031 9.1875 12.7031C9.29494 12.7031 9.4027 12.6785 9.50194 12.6289L15.1269 9.8164C15.3652 9.69724 15.5156 9.45382 15.5156 9.18748C15.5156 8.92113 15.3652 8.67771 15.1269 8.55855ZM4.92188 18.3281C3.75877 18.3281 2.8125 19.2744 2.8125 20.4375C2.8125 21.6006 3.75877 22.5469 4.92188 22.5469C6.08498 22.5469 7.03125 21.6006 7.03125 20.4375C7.03125 19.2744 6.08498 18.3281 4.92188 18.3281Z" fill="url(#paint1_linear_1_86)"/>
</g>
<defs>
<linearGradient id="paint0_linear_1_86" x1="12" y1="21.1406" x2="12" y2="1.45312" gradientUnits="userSpaceOnUse">
<stop stop-color="#FD3A84"/>
<stop offset="1" stop-color="#FFA68D"/>
</linearGradient>
<linearGradient id="paint1_linear_1_86" x1="9.16406" y1="22.5469" x2="9.16406" y2="5.67185" gradientUnits="userSpaceOnUse">
<stop stop-color="#FFC2CC"/>
<stop offset="1" stop-color="#FFF2F4"/>
</linearGradient>
<clipPath id="clip0_1_86">
<rect width="24" height="24" fill="white"/>
</clipPath>
</defs>
</svg>
