<svg width="72" height="24" viewBox="0 0 72 24" fill="none" xmlns="http://www.w3.org/2000/svg">
<path d="M12 6.04201C10.3516 4.56337 8.2144 3.74695 6 3.75001C4.948 3.75001 3.938 3.93001 3 4.26201V18.512C3.96362 18.172 4.97816 17.9989 6 18C8.305 18 10.408 18.867 12 20.292M12 6.04201C13.6483 4.56328 15.7856 3.74686 18 3.75001C19.052 3.75001 20.062 3.93001 21 4.26201V18.512C20.0364 18.172 19.0218 17.9989 18 18C15.7856 17.997 13.6484 18.8134 12 20.292M12 6.04201V20.292" stroke="white" stroke-width="1.5" stroke-linecap="round" stroke-linejoin="round"/>
<path d="M41.5312 5.26562V10.7812H43.625V12.2344H41.5312V19.3594H39.7969V5.26562H41.5312ZM30.3906 15.5C33.8281 13.7812 35.6875 11.3906 36.0312 8.17188H31.1562V6.73438H37.7969C37.7891 10.8828 36.0703 14.5312 31.375 16.8438L30.3906 15.5ZM56.0469 5.26562V19.4062H54.2969V5.26562H56.0469ZM44.75 11.2812C44.7422 8.23438 46.2969 6.29688 48.4375 6.29688C50.5547 6.29688 52.1172 8.23438 52.125 11.2812C52.1172 14.3516 50.5547 16.2812 48.4375 16.2812C46.2969 16.2812 44.7422 14.3516 44.75 11.2812ZM46.4219 11.2812C46.4219 13.4531 47.2422 14.7109 48.4375 14.7188C49.625 14.7109 50.4375 13.4531 50.4375 11.2812C50.4375 9.125 49.625 7.85938 48.4375 7.85938C47.2422 7.85938 46.4219 9.125 46.4219 11.2812ZM69.5938 11.8906V13.2812H59.6875V6.5H69.4844V7.90625H61.4062V11.8906H69.5938ZM58.125 17.5938V16.1562H71.0312V17.5938H58.125Z" fill="white"/>
</svg>
