<svg width="24" height="24" viewBox="0 0 24 24" fill="none" xmlns="http://www.w3.org/2000/svg">
<g opacity="0.1">
<path d="M24 8.94839C24 5.1375 21.1688 2.15625 17.625 2.15625C15.375 2.15625 13.7296 3.05625 12.7031 3.88589L12 5.2148L11.2969 3.88589C10.2704 3.05625 8.62495 2.15625 6.375 2.15625C2.8312 2.15625 0 5.1375 0 8.94839C0 9.59526 0.084375 10.3969 0.365625 11.2969L2.56256 12.2066L0.914109 12.7031C2.16562 15.3187 5.0813 18.525 11.2969 21.5766L12 19.6078L12.7031 21.5766C18.9187 18.525 21.8343 15.3187 23.0859 12.7031L21.4374 12.2066L23.6344 11.2969C23.9155 10.3969 24 9.59526 24 8.94839Z" fill="url(#paint0_linear_1_112)"/>
<path d="M23.6344 11.2968H16.7952C16.8656 11.0718 16.9219 10.8468 16.9219 10.5937C16.9219 9.42654 15.9797 8.48435 14.8125 8.48435C14.0109 8.48435 13.2937 8.7656 12.7031 9.20154V3.88586C12.4219 4.11091 12.1828 4.3218 12 4.51868C11.8172 4.32175 11.5781 4.11091 11.2969 3.88586V9.20154C10.7063 8.7656 9.98904 8.48435 9.18748 8.48435C8.02024 8.48435 7.0781 9.42654 7.0781 10.5937C7.0781 10.8468 7.1343 11.0718 7.20471 11.2968H0.365601C0.492116 11.7328 0.674929 12.2109 0.914038 12.7031H10.2984L8.69529 14.3202C8.41404 14.5874 8.41404 15.0374 8.69529 15.3046C8.94823 15.5859 9.42654 15.586 9.67962 15.3046L11.2969 13.7015V21.5765C11.4235 21.6468 11.55 21.7031 11.6906 21.7735C11.789 21.8156 11.9015 21.8438 12 21.8438C12.0984 21.8438 12.211 21.8156 12.3093 21.7735C12.45 21.7031 12.5765 21.6468 12.7031 21.5765V13.7015L14.3203 15.3046C14.5733 15.5859 15.0516 15.586 15.3047 15.3046C15.5859 15.0374 15.5859 14.5874 15.3047 14.3202L13.7016 12.7031H23.0859C23.325 12.2109 23.5078 11.7328 23.6344 11.2968ZM9.18748 11.2968C8.79368 11.2968 8.48435 10.9874 8.48435 10.5937C8.48435 10.1999 8.79368 9.8906 9.18748 9.8906C10.1016 9.8906 10.8891 10.4812 11.1702 11.2968H9.18748ZM14.8125 11.2968H12.8297C13.1109 10.4812 13.8984 9.8906 14.8125 9.8906C15.2063 9.8906 15.5156 10.1999 15.5156 10.5937C15.5156 10.9874 15.2063 11.2968 14.8125 11.2968Z" fill="url(#paint1_linear_1_112)"/>
</g>
<defs>
<linearGradient id="paint0_linear_1_112" x1="12" y1="21.5766" x2="12" y2="2.15625" gradientUnits="userSpaceOnUse">
<stop stop-color="#A93AFF"/>
<stop offset="1" stop-color="#FF81FF"/>
</linearGradient>
<linearGradient id="paint1_linear_1_112" x1="12" y1="21.8437" x2="12" y2="3.88586" gradientUnits="userSpaceOnUse">
<stop stop-color="#FFBEF9"/>
<stop offset="1" stop-color="#FFF1FF"/>
</linearGradient>
</defs>
</svg>
