<svg width="24" height="24" viewBox="0 0 24 24" fill="none" xmlns="http://www.w3.org/2000/svg">
<g opacity="0.1" clip-path="url(#clip0_1_76)">
<path d="M20.6452 12.4386C20.5641 12.2113 20.3719 12.0411 20.137 11.9875C19.898 11.9333 19.655 12.0054 19.4847 12.1763C19.1427 12.5183 18.5124 13.0669 18.066 12.9117C17.4865 12.7023 16.7847 11.2493 16.5279 8.47586C16.3789 6.46486 15.0483 3.0674 12.5343 0.22796C12.4025 0.0734553 12.1937 0.00135941 11.9904 0C11.9891 0 11.9877 0 11.9849 0C11.7844 0 11.5771 0.102987 11.4425 0.253367C9.26986 2.69928 8.80433 4.91274 8.64087 6.47147C8.34695 9.2758 7.63012 9.82173 7.33621 9.92607C6.81428 10.1149 6.09886 9.54225 5.86673 9.30876C5.71016 9.15289 5.48356 9.10208 5.26385 9.12814C5.04686 9.15767 4.8436 9.30669 4.73649 9.49757C3.54306 11.6036 0.748342 16.5359 5.53714 21.3233C7.26205 23.0482 9.57052 24 12.0261 24C14.4528 24 16.7353 23.0523 18.4629 21.3233C19.1193 20.6662 22.3124 17.1505 20.6452 12.4386Z" fill="url(#paint0_linear_1_76)"/>
<path d="M13.6082 11.4258C13.3925 10.8057 13.1248 10.0339 12.6427 8.94896C12.5054 8.64066 12.1689 8.47378 11.8393 8.55C11.5111 8.62692 11.2831 8.92698 11.2968 9.26411C11.3394 10.2591 10.5168 10.9959 9.56367 11.8494C8.21232 13.0586 6.52998 14.5645 7.1411 17.3159C7.67418 19.7176 9.81971 21.1887 11.9917 21.1887C13.6905 21.1887 15.1353 20.2802 15.8329 18.738C16.4976 17.2727 16.2532 15.5347 15.1943 14.2939C14.1946 13.1074 13.9982 12.545 13.6082 11.4258ZM23.3824 3.52434C22.5872 2.72847 21.3114 2.70306 20.4847 3.44329C19.6565 2.70306 18.3807 2.72847 17.5869 3.52434C16.7643 4.34697 16.7643 5.68459 17.5869 6.50722L19.9875 8.90781C20.1249 9.04515 20.3048 9.11383 20.4847 9.11383C20.6645 9.11383 20.8445 9.04515 20.9818 8.90781L23.3824 6.50722C24.205 5.68459 24.205 4.34692 23.3824 3.52434ZM6.41311 2.11804C5.61931 1.32218 4.34212 1.29677 3.5154 2.037C2.68729 1.29677 1.41145 1.32218 0.617647 2.11804C-0.204987 2.94068 -0.204987 4.2783 0.617647 5.10093L3.01823 7.50151C3.15558 7.63886 3.33549 7.70754 3.51536 7.70754C3.69522 7.70754 3.87518 7.63886 4.01248 7.50151L6.41307 5.10093C7.23575 4.2783 7.23575 2.94063 6.41311 2.11804Z" fill="url(#paint1_linear_1_76)"/>
</g>
<defs>
<linearGradient id="paint0_linear_1_76" x1="11.9786" y1="24" x2="11.9786" y2="0" gradientUnits="userSpaceOnUse">
<stop stop-color="#00B59C"/>
<stop offset="1" stop-color="#9CFFAC"/>
</linearGradient>
<linearGradient id="paint1_linear_1_76" x1="12" y1="21.1888" x2="12" y2="1.50078" gradientUnits="userSpaceOnUse">
<stop stop-color="#C3FFE8"/>
<stop offset="0.9973" stop-color="#F0FFF4"/>
</linearGradient>
<clipPath id="clip0_1_76">
<rect width="24" height="24" fill="white"/>
</clipPath>
</defs>
</svg>
