<svg width="24" height="24" viewBox="0 0 24 24" fill="none" xmlns="http://www.w3.org/2000/svg">
<g opacity="0.1" clip-path="url(#clip0_1_40)">
<path d="M15.9375 3.56269V6.37519C15.9375 6.69375 15.7233 6.97252 15.4155 7.05459L12.6562 7.79039V13.1095C12.6562 14.4019 11.6048 15.4533 10.3125 15.4533C9.02016 15.4533 7.96875 14.4019 7.96875 13.1095C7.96875 11.8172 9.02016 10.7658 10.3125 10.7658C10.6457 10.7658 10.9627 10.8361 11.25 10.962V4.43766C11.25 4.11909 11.4642 3.84038 11.772 3.7583L15.0532 2.88333C15.4996 2.76427 15.9375 3.10069 15.9375 3.56269ZM6.5625 13.4064C6.5625 13.0181 6.24769 12.7033 5.85938 12.7033H0.703125C0.314812 12.7033 0 13.0181 0 13.4064C0 13.7948 0.314812 14.1096 0.703125 14.1096H5.85938C6.24769 14.1096 6.5625 13.7948 6.5625 13.4064ZM8.4375 19.5002C8.4375 19.1119 8.12269 18.7971 7.73438 18.7971H0.703125C0.314812 18.7971 0 19.1119 0 19.5002C0 19.8885 0.314812 20.2033 0.703125 20.2033H7.73438C8.12269 20.2033 8.4375 19.8885 8.4375 19.5002ZM8.4375 7.78144C8.4375 7.39313 8.12269 7.07831 7.73438 7.07831H0.703125C0.314812 7.07831 0 7.39313 0 7.78144C0 8.16975 0.314812 8.48456 0.703125 8.48456H7.73438C8.12269 8.48456 8.4375 8.16975 8.4375 7.78144Z" fill="url(#paint0_linear_1_40)"/>
<path d="M23.1157 7.57083L16.0845 9.44583C15.7767 9.5279 15.5625 9.80667 15.5625 10.1252V16.6496C15.2752 16.5237 14.9582 16.4534 14.625 16.4534C13.3327 16.4534 12.2812 17.5048 12.2812 18.7971C12.2812 20.0895 13.3327 21.1409 14.625 21.1409C15.9173 21.1409 16.9688 20.0895 16.9688 18.7971V13.4779L22.5938 11.9779V15.7121C22.3065 15.5862 21.9895 15.5158 21.6562 15.5158C20.3639 15.5158 19.3125 16.5672 19.3125 17.8596C19.3125 19.1519 20.3639 20.2033 21.6562 20.2033C22.9486 20.2033 24 19.1519 24 17.8596V8.25019C24 7.78823 23.5621 7.45176 23.1157 7.57083ZM7.73438 17.3908H0.703125C0.314812 17.3908 0 17.076 0 16.6877C0 16.2994 0.314812 15.9846 0.703125 15.9846H7.73438C8.12269 15.9846 8.4375 16.2994 8.4375 16.6877C8.4375 17.076 8.12269 17.3908 7.73438 17.3908ZM5.85938 11.2971H0.703125C0.314812 11.2971 0 10.9822 0 10.5939C0 10.2056 0.314812 9.89081 0.703125 9.89081H5.85938C6.24769 9.89081 6.5625 10.2056 6.5625 10.5939C6.5625 10.9822 6.24769 11.2971 5.85938 11.2971Z" fill="url(#paint1_linear_1_40)"/>
</g>
<defs>
<linearGradient id="paint0_linear_1_40" x1="7.96875" y1="20.2033" x2="7.96875" y2="2.85919" gradientUnits="userSpaceOnUse">
<stop stop-color="#5558FF"/>
<stop offset="1" stop-color="#00C0FF"/>
</linearGradient>
<linearGradient id="paint1_linear_1_40" x1="12" y1="21.1408" x2="12" y2="7.54669" gradientUnits="userSpaceOnUse">
<stop stop-color="#ADDCFF"/>
<stop offset="0.5028" stop-color="#EAF6FF"/>
<stop offset="1" stop-color="#EAF6FF"/>
</linearGradient>
<clipPath id="clip0_1_40">
<rect width="24" height="24" fill="white"/>
</clipPath>
</defs>
</svg>
