<svg width="24" height="24" viewBox="0 0 24 24" fill="none" xmlns="http://www.w3.org/2000/svg">
<g opacity="0.1" clip-path="url(#clip0_5_3)">
<path d="M16.2188 7.78125C16.2188 5.45489 14.3264 3.5625 12 3.5625C9.67364 3.5625 7.78125 5.45489 7.78125 7.78125C7.78125 10.1076 9.67364 12 12 12C14.3264 12 16.2188 10.1076 16.2188 7.78125ZM12 12C8.1232 12 4.96875 15.1545 4.96875 19.0312V19.7344C4.96875 20.123 5.28323 20.4375 5.67188 20.4375H18.3281C18.7168 20.4375 19.0312 20.123 19.0312 19.7344V19.0312C19.0312 15.1545 15.8768 12 12 12Z" fill="url(#paint0_linear_5_3)"/>
<path d="M23.2969 16.9688C22.9082 16.9688 22.5938 17.2832 22.5938 17.6719V20.4844C22.5938 21.6475 21.6475 22.5938 20.4844 22.5938H17.6719C17.2832 22.5938 16.9688 22.9082 16.9688 23.2969C16.9688 23.6855 17.2832 24 17.6719 24H20.4844C22.4235 24 24 22.4228 24 20.4844V17.6719C24 17.2832 23.6855 16.9688 23.2969 16.9688ZM20.4844 0H17.6719C17.2832 0 16.9688 0.314484 16.9688 0.703125C16.9688 1.09177 17.2832 1.40625 17.6719 1.40625H20.4844C21.6475 1.40625 22.5938 2.35247 22.5938 3.51562V6.32812C22.5938 6.71677 22.9082 7.03125 23.2969 7.03125C23.6855 7.03125 24 6.71677 24 6.32812V3.51562C24 1.5772 22.4235 0 20.4844 0ZM6.32812 0H3.51562C1.57655 0 0 1.5772 0 3.51562V6.32812C0 6.71677 0.314484 7.03125 0.703125 7.03125C1.09177 7.03125 1.40625 6.71677 1.40625 6.32812V3.51562C1.40625 2.35247 2.35247 1.40625 3.51562 1.40625H6.32812C6.71677 1.40625 7.03125 1.09177 7.03125 0.703125C7.03125 0.314484 6.71677 0 6.32812 0ZM6.32812 22.5938H3.51562C2.35247 22.5938 1.40625 21.6475 1.40625 20.4844V17.6719C1.40625 17.2832 1.09177 16.9688 0.703125 16.9688C0.314484 16.9688 0 17.2832 0 17.6719V20.4844C0 22.4228 1.57655 24 3.51562 24H6.32812C6.71677 24 7.03125 23.6855 7.03125 23.2969C7.03125 22.9082 6.71677 22.5938 6.32812 22.5938Z" fill="url(#paint1_linear_5_3)"/>
</g>
<defs>
<linearGradient id="paint0_linear_5_3" x1="12" y1="20.4375" x2="12" y2="3.5625" gradientUnits="userSpaceOnUse">
<stop stop-color="#FD3A84"/>
<stop offset="1" stop-color="#FFA68D"/>
</linearGradient>
<linearGradient id="paint1_linear_5_3" x1="12" y1="24" x2="12" y2="0" gradientUnits="userSpaceOnUse">
<stop stop-color="#FFC2CC"/>
<stop offset="1" stop-color="#FFF2F4"/>
</linearGradient>
<clipPath id="clip0_5_3">
<rect width="24" height="24" fill="white"/>
</clipPath>
</defs>
</svg>
