<svg width="24" height="24" viewBox="0 0 24 24" fill="none" xmlns="http://www.w3.org/2000/svg">
<g clip-path="url(#clip0_1_56)">
<path d="M14.1094 18.3516L13.4062 15.4688H10.5938L9.89062 18.3516C8.2875 18.675 7.07812 20.0953 7.07812 21.7969V23.2969C7.07812 23.6907 7.38745 24 7.78125 24H16.2188C16.6125 24 16.9219 23.6907 16.9219 23.2969V21.7969C16.9219 20.0953 15.7125 18.675 14.1094 18.3516ZM9.14906 8.66686L8.95819 9.78333C8.87166 10.2969 9.09141 10.8312 9.51713 11.1415C9.97467 11.4781 10.5792 11.4869 10.9866 11.2562L12 10.733L12.9847 11.2404C13.4573 11.5137 14.0653 11.467 14.4816 11.1429C14.9086 10.8312 15.1284 10.2969 15.0419 9.78127L14.851 8.66616L15.6434 7.88339C16.0389 7.51467 16.1844 6.94477 16.0141 6.43116C15.8521 5.93812 15.414 5.56528 14.8894 5.47809L13.7619 5.3078L13.2621 4.29909C13.0313 3.83766 12.5479 3.55064 12 3.55064C11.4521 3.55064 10.9687 3.83766 10.7366 4.30116L10.2381 5.3078L9.09961 5.48016C8.586 5.56528 8.14791 5.93817 7.98586 6.43116C7.81556 6.94477 7.96116 7.51467 8.34155 7.86966L9.14906 8.66686ZM23.2969 2.8125H19.0312C18.6426 2.8125 18.3281 3.12698 18.3281 3.51562C18.3281 3.90427 18.6426 4.21875 19.0312 4.21875H22.5938V5.70192C22.5938 7.98567 20.6888 9.84375 18.405 9.84375C18.0164 9.84375 17.7019 10.1582 17.7019 10.5469C17.7019 10.9355 18.0164 11.25 18.405 11.25C21.4647 11.25 24 8.76089 24 5.70192V3.51562C24 3.12698 23.6855 2.8125 23.2969 2.8125ZM5.59495 9.84375C3.3112 9.84375 1.40625 7.98567 1.40625 5.70192V4.21875H4.96875C5.35739 4.21875 5.67188 3.90427 5.67188 3.51562C5.67188 3.12698 5.35739 2.8125 4.96875 2.8125H0.703125C0.314484 2.8125 0 3.12698 0 3.51562V5.70192C0 8.76089 2.53528 11.25 5.59495 11.25C5.98359 11.25 6.29808 10.9355 6.29808 10.5469C6.29808 10.1582 5.98359 9.84375 5.59495 9.84375Z" fill="url(#paint0_linear_1_56)"/>
<path d="M19.0312 0H4.96875C4.57495 0 4.26562 0.309328 4.26562 0.703125V7.56562C4.26562 11.1094 6.55781 14.2171 9.89062 15.3V18.3516C10.1155 18.3094 10.3548 18.2812 10.5938 18.2812H13.4062C13.6452 18.2812 13.8845 18.3094 14.1094 18.3516V15.3C17.4422 14.2171 19.7344 11.1094 19.7344 7.56562V0.703125C19.7344 0.309328 19.425 0 19.0312 0ZM15.1641 7.36875L14.0953 8.42344L14.3483 9.9C14.3906 10.1531 14.2781 10.4203 14.0671 10.575C13.8418 10.7504 13.5492 10.753 13.3358 10.6313L12 9.94219L10.6641 10.6313C10.4391 10.7579 10.1436 10.7297 9.93281 10.575C9.72187 10.4203 9.60942 10.1531 9.65161 9.9L9.90464 8.42344L8.83589 7.36875C8.63902 7.18594 8.5688 6.90464 8.65308 6.65156C8.73736 6.39844 8.96259 6.21563 9.21563 6.17348L10.7063 5.94844L11.3672 4.61255C11.6062 4.13438 12.3937 4.13438 12.6327 4.61255L13.2936 5.94844L14.7843 6.17348C15.0374 6.21563 15.2626 6.39844 15.3469 6.65156C15.4312 6.90464 15.3609 7.18594 15.1641 7.36875Z" fill="url(#paint1_linear_1_56)"/>
</g>
<defs>
<linearGradient id="paint0_linear_1_56" x1="12" y1="24" x2="12" y2="2.8125" gradientUnits="userSpaceOnUse">
<stop stop-color="#A93AFF"/>
<stop offset="1" stop-color="#FF81FF"/>
</linearGradient>
<linearGradient id="paint1_linear_1_56" x1="12" y1="18.3516" x2="12" y2="0" gradientUnits="userSpaceOnUse">
<stop stop-color="#FFBEF9"/>
<stop offset="1" stop-color="#FFF1FF"/>
</linearGradient>
<clipPath id="clip0_1_56">
<rect width="24" height="24" fill="white"/>
</clipPath>
</defs>
</svg>
