<svg width="56" height="24" viewBox="0 0 56 24" fill="none" xmlns="http://www.w3.org/2000/svg">
<rect width="56" height="24" rx="8" fill="#444444"/>
<path d="M21.584 6.92969V7.97266H18.5137C18.6309 8.97461 19.9258 9.92383 21.9707 10.1641L21.4785 11.1953C19.5801 10.9668 18.1797 10.1289 17.6113 8.98633C17.043 10.123 15.6543 10.9668 13.7559 11.1953L13.2754 10.1641C15.3203 9.92383 16.5977 8.96875 16.7207 7.97266H13.6738V6.92969H21.584ZM12.7832 12.8359V11.7812H22.4629V12.8359H18.373V14.7695H17.084V12.8359H12.7832ZM13.9551 16.832V13.7969H15.2559V15.7773H21.3965V16.832H13.9551ZM31.9785 6.44922V17.0547H30.666V6.44922H31.9785ZM23.7285 14.5586V7.31641H25.0293V9.96484H27.5957V7.31641H28.8848V14.5586H23.7285ZM25.0293 13.4922H27.5957V10.9844H25.0293V13.4922ZM43.1934 11.3125V12.3672H38.998V13.2578C40.8906 13.3809 42.0156 14.0371 42.0215 15.1328C42.0156 16.3516 40.6328 17.0312 38.3535 17.0312C36.0391 17.0312 34.6621 16.3516 34.6621 15.1328C34.6621 14.0371 35.7871 13.375 37.709 13.252V12.3672H33.5371V11.3125H43.1934ZM34.0059 9.80078C35.9512 9.61914 37.2227 8.82812 37.4395 7.96094H34.416V6.91797H42.3262V7.96094H39.2734C39.4844 8.83398 40.7441 9.61914 42.7363 9.80078L42.2793 10.832C40.3516 10.6328 38.9277 9.86523 38.3535 8.79297C37.7793 9.86523 36.373 10.6328 34.4512 10.832L34.0059 9.80078ZM35.9863 15.1328C35.9805 15.7188 36.8125 16.041 38.3535 16.0352C39.8711 16.041 40.709 15.7188 40.7207 15.1328C40.709 14.5469 39.8711 14.2363 38.3535 14.2305C36.8125 14.2363 35.9805 14.5469 35.9863 15.1328Z" fill="white"/>
</svg>
