<svg width="24" height="24" viewBox="0 0 24 24" fill="none" xmlns="http://www.w3.org/2000/svg">
<path d="M15.362 5.21389C17.0869 5.98466 18.495 7.32395 19.3512 9.00803C20.2074 10.6921 20.4599 12.619 20.0663 14.4668C19.6728 16.3146 18.6571 17.9714 17.189 19.1605C15.7209 20.3495 13.8892 20.9988 12 20.9999C10.3838 21 8.80318 20.5254 7.45437 19.635C6.10556 18.7447 5.04798 17.4777 4.41294 15.9915C3.7779 14.5053 3.59337 12.8653 3.88227 11.2752C4.17117 9.68501 4.92077 8.21473 6.03799 7.04689C6.80741 8.12235 7.82303 8.99807 8.99999 9.60089C9.02061 8.27951 9.33252 6.97896 9.91348 5.79198C10.4944 4.60499 11.3301 3.56081 12.361 2.73389C13.1477 3.78908 14.1767 4.63965 15.361 5.21389H15.362Z" stroke="white" stroke-width="1.5" stroke-linecap="round" stroke-linejoin="round"/>
<path d="M12 18C12.9527 18.0016 13.8703 17.6405 14.5664 16.99C15.2625 16.3396 15.685 15.4486 15.748 14.498C15.811 13.5474 15.5098 12.6084 14.9056 11.8718C14.3015 11.1352 13.4396 10.6562 12.495 10.532C11.4624 11.4561 10.7821 12.7096 10.57 14.079C9.7996 13.8902 9.07451 13.5499 8.437 13.078C8.25165 13.6413 8.20256 14.2406 8.29373 14.8265C8.38491 15.4125 8.61377 15.9685 8.96151 16.4489C9.30925 16.9293 9.76597 17.3203 10.2942 17.59C10.8224 17.8596 11.407 18.0001 12 18Z" stroke="white" stroke-width="1.5" stroke-linecap="round" stroke-linejoin="round"/>
</svg>
