<svg width="86" height="24" viewBox="0 0 86 24" fill="none" xmlns="http://www.w3.org/2000/svg">
<path d="M15.362 5.21389C17.0869 5.98466 18.495 7.32395 19.3512 9.00803C20.2074 10.6921 20.4599 12.619 20.0663 14.4668C19.6728 16.3146 18.6571 17.9714 17.189 19.1605C15.7209 20.3495 13.8892 20.9988 12 20.9999C10.3838 21 8.80318 20.5254 7.45437 19.635C6.10556 18.7447 5.04798 17.4777 4.41294 15.9915C3.7779 14.5053 3.59337 12.8653 3.88227 11.2752C4.17117 9.68501 4.92077 8.21473 6.03799 7.04689C6.80741 8.12235 7.82303 8.99807 8.99999 9.60089C9.02061 8.27951 9.33252 6.97896 9.91348 5.79198C10.4944 4.60499 11.3301 3.56081 12.361 2.73389C13.1477 3.78908 14.1767 4.63965 15.361 5.21389H15.362Z" stroke="white" stroke-width="1.5" stroke-linecap="round" stroke-linejoin="round"/>
<path d="M12 18C12.9527 18.0016 13.8703 17.6405 14.5664 16.99C15.2625 16.3396 15.685 15.4486 15.748 14.498C15.811 13.5474 15.5098 12.6084 14.9056 11.8718C14.3015 11.1352 13.4396 10.6562 12.495 10.532C11.4624 11.4561 10.7821 12.7096 10.57 14.079C9.7996 13.8902 9.07451 13.5499 8.437 13.078C8.25165 13.6413 8.20256 14.2406 8.29373 14.8265C8.38491 15.4125 8.61377 15.9685 8.96151 16.4489C9.30925 16.9293 9.76597 17.3203 10.2942 17.59C10.8224 17.8596 11.407 18.0001 12 18Z" stroke="white" stroke-width="1.5" stroke-linecap="round" stroke-linejoin="round"/>
<path d="M35.7969 9.28125C35.7969 11.5938 37.1562 14.0312 39.4375 14.9844L38.4844 16.3594C36.8125 15.6328 35.5938 14.1562 34.9453 12.3594C34.2969 14.2969 33.0547 15.9219 31.4062 16.7031L30.4062 15.3438C32.6328 14.3125 34.0234 11.6797 34.0312 9.28125V8.09375H30.9219V6.65625H38.8906V8.09375H35.7969V9.28125ZM40.4688 19.3906V5.26562H42.2188V19.3906H40.4688ZM56.1406 5.28125V15.9688H54.3906V14.7344H51.625V13.5156H54.3906V5.28125H56.1406ZM44.2344 11.625C46.8359 11.6094 50.3438 11.5859 53.3438 11.2031L53.4375 12.4531C52.2734 12.6484 51.0703 12.7734 49.875 12.8594V15.5781H48.1406V12.9531C46.8203 13.0078 45.5625 13.0156 44.4531 13.0156L44.2344 11.625ZM45.3125 8.29688C45.3125 6.80469 46.75 5.78906 48.8438 5.79688C50.8984 5.78906 52.3438 6.80469 52.3594 8.29688C52.3438 9.8125 50.8984 10.7734 48.8438 10.7812C46.75 10.7734 45.3125 9.8125 45.3125 8.29688ZM46.1094 19.1094V14.9375H47.8438V17.7031H56.4688V19.1094H46.1094ZM46.9531 8.29688C46.9531 9.0625 47.7109 9.50781 48.8438 9.51562C49.9219 9.50781 50.6953 9.0625 50.7031 8.29688C50.6953 7.53125 49.9219 7.07031 48.8438 7.07812C47.7109 7.07031 46.9531 7.53125 46.9531 8.29688ZM69.1875 5.26562V10.8906H71.3594V12.3281H69.1875V19.3906H67.4688V5.26562H69.1875ZM58.0469 8.82812V7.4375H61.3906V5.46875H63.125V7.4375H66.375V8.82812H58.0469ZM58.7031 13.0781C58.6875 11.125 60.2031 9.74219 62.2656 9.75C64.2969 9.74219 65.8047 11.125 65.8125 13.0781C65.8047 15.0234 64.2969 16.3906 62.2656 16.3906C60.2031 16.3906 58.6875 15.0234 58.7031 13.0781ZM60.3594 13.0781C60.3516 14.2266 61.1562 14.9609 62.2656 14.9531C63.3516 14.9609 64.1406 14.2266 64.1562 13.0781C64.1406 11.9297 63.3516 11.1719 62.2656 11.1719C61.1562 11.1719 60.3516 11.9297 60.3594 13.0781ZM83.75 5.26562V19.3906H82V5.26562H83.75ZM72.0469 15.5C75.75 13.7422 77.4531 11.3516 77.7656 8.14062H72.7656V6.76562H79.5312C79.5312 10.9688 77.8984 14.5391 72.9531 16.8906L72.0469 15.5Z" fill="white"/>
</svg>
