<svg width="24" height="24" viewBox="0 0 24 24" fill="none" xmlns="http://www.w3.org/2000/svg">
<g clip-path="url(#clip0_1_66)">
<path d="M20.4375 5.625H17.6252C17.4387 5.625 17.2597 5.69911 17.1279 5.83102L14.5214 8.4375H9.47864L6.87202 5.83087C6.7402 5.69906 6.56142 5.625 6.375 5.625H3.5625C2.39752 5.625 1.45312 6.56939 1.45312 7.73438V11.3438C1.45312 12.1204 2.0827 12.75 2.85938 12.75H21.1406C21.9173 12.75 22.5469 12.1204 22.5469 11.3438V7.73438C22.5469 6.56939 21.6025 5.625 20.4375 5.625ZM15.2108 15.5563L13.8608 15.3572L13.2621 14.137C13.0313 13.6763 12.548 13.3899 12 13.3899C11.452 13.3899 10.9687 13.6762 10.7352 14.1418L10.1392 15.3572L8.78377 15.557C8.2523 15.6401 7.81833 16.004 7.63842 16.5424C7.49836 17.0436 7.63842 17.5806 8.00648 17.9493L8.98013 18.901L8.74669 20.2592C8.66292 20.7708 8.88263 21.3022 9.30014 21.6092C9.7455 21.9444 10.3208 21.9764 10.7929 21.7259L12 21.0948L13.1851 21.7141C13.6714 21.992 14.289 21.9294 14.6944 21.6132C15.1173 21.3022 15.3371 20.7707 15.2533 20.2523L15.0199 18.901L15.999 17.9438C16.3616 17.5806 16.5017 17.0436 16.3506 16.506C16.1817 16.004 15.7477 15.6401 15.2108 15.5563Z" fill="url(#paint0_linear_1_66)"/>
<path d="M1.45312 11.3438V21.8906C1.45312 23.0578 2.39527 24 3.5625 24H20.4375C21.6047 24 22.5469 23.0578 22.5469 21.8906V11.3438H1.45312ZM15.5016 17.4468L14.2641 18.6563L14.5594 20.3718C14.6016 20.625 14.4891 20.8922 14.2782 21.0468C14.0509 21.2237 13.7454 21.2245 13.5329 21.1031L12 20.3016L10.4671 21.1031C10.2281 21.2297 9.94683 21.2156 9.72187 21.0468C9.51089 20.8922 9.39848 20.625 9.44062 20.3719L9.73594 18.6563L8.49844 17.4468C8.31563 17.264 8.24531 16.9828 8.31562 16.7297C8.4 16.4765 8.62495 16.2937 8.89214 16.2516L10.6078 15.9984L11.3671 14.4515C11.6062 13.9734 12.3938 13.9734 12.6328 14.4515L13.3922 15.9984L15.1079 16.2516C15.375 16.2937 15.6 16.4765 15.6844 16.7297C15.7546 16.9828 15.6844 17.264 15.5016 17.4468ZM5.67188 9.14064C5.67188 9.52928 5.98636 9.84376 6.375 9.84376H17.625C18.0136 9.84376 18.3281 9.52928 18.3281 9.14064C18.3281 8.752 18.0136 8.43751 17.625 8.43751H16.5099L18.1222 6.82525C18.3968 6.5506 18.3968 6.10562 18.1222 5.83098L12.4972 0.20598C12.2225 -0.0686602 11.7775 -0.0686602 11.5029 0.20598L5.87789 5.83098C5.60325 6.10562 5.60325 6.5506 5.87789 6.82525L7.49011 8.43751H6.375C5.98636 8.43751 5.67188 8.752 5.67188 9.14064Z" fill="url(#paint1_linear_1_66)"/>
</g>
<defs>
<linearGradient id="paint0_linear_1_66" x1="12" y1="21.8907" x2="12" y2="5.625" gradientUnits="userSpaceOnUse">
<stop stop-color="#FFC2CC"/>
<stop offset="1" stop-color="#FFF2F4"/>
</linearGradient>
<linearGradient id="paint1_linear_1_66" x1="12" y1="24" x2="12" y2="1.14441e-05" gradientUnits="userSpaceOnUse">
<stop stop-color="#FD3A84"/>
<stop offset="1" stop-color="#FFA68D"/>
</linearGradient>
<clipPath id="clip0_1_66">
<rect width="24" height="24" fill="white"/>
</clipPath>
</defs>
</svg>
